<svg width="83" height="72" viewBox="0 0 83 72" fill="none" xmlns="http://www.w3.org/2000/svg">
<g clip-path="url(#clip0_69_834)">
<path d="M82.3102 40.6621C82.3102 50.8437 82.3102 61.0253 82.3102 71.2069C81.9029 71.8285 81.3242 72 80.5954 72C54.2947 71.9786 27.994 71.9786 1.7148 72C0.986008 72 0.407264 71.8285 0 71.2069C0 69.3849 0 67.563 0 65.741C0.342959 65.0979 0.857398 64.8407 1.58619 64.905C2.16493 64.9479 2.76511 64.905 3.34385 64.905C4.95147 64.905 6.53766 64.905 8.20959 64.905C8.23102 64.5406 8.25246 64.2405 8.25246 63.9619C8.25246 62.4614 8.29533 60.961 8.23102 59.4606C8.20959 58.9461 8.05954 58.4102 7.82376 57.9601C4.37273 51.8297 4.17982 45.5921 7.35219 39.3117C7.99524 38.0685 8.3382 36.8895 8.25246 35.5177C8.18815 34.1887 8.23102 32.8598 8.23102 31.4665C7.56654 31.4665 7.00923 31.4879 6.45192 31.4665C5.65883 31.4451 5.12295 30.9521 5.12295 30.2661C5.12295 29.5802 5.65883 29.0872 6.45192 29.0658C7.03066 29.0444 7.60941 29.0658 8.18815 29.0658C8.18815 28.2513 8.18815 27.5653 8.18815 26.7937C7.52367 26.7937 6.92349 26.8366 6.30188 26.7937C5.57309 26.7508 5.08008 26.1935 5.12295 25.529C5.16582 24.886 5.65883 24.4358 6.36618 24.4144C6.58053 24.393 6.79488 24.4144 7.00923 24.4144C12.025 24.4144 17.0194 24.4144 22.0351 24.4144C22.3352 24.4144 22.6567 24.4144 23.0211 24.4144C23.0211 23.2998 23.0211 22.3138 23.0211 21.3278C23.0426 17.8982 25.1646 15.7761 28.5942 15.7761C34.0816 15.7761 39.5689 15.7761 45.0563 15.7761C45.3778 15.7761 45.6779 15.7761 46.0851 15.7761C46.0851 15.4117 46.0851 15.1116 46.0851 14.833C46.0851 10.4603 46.0851 6.10896 46.0851 1.73623C46.0851 0.385829 46.4495 0.021435 47.7785 0.021435C58.7103 0.021435 69.6422 0.021435 80.5525 0C81.2813 0 81.8601 0.17148 82.2673 0.793093C82.2673 12.5823 82.2673 24.3715 82.2673 36.1608C81.8386 36.6538 81.3456 37.0825 80.6169 36.7824C79.8881 36.4823 79.8238 35.8607 79.8452 35.1748C79.8452 34.9818 79.8452 34.8104 79.8452 34.6174C79.8452 25.8291 79.8452 17.0408 79.8452 8.25246C79.8452 7.93093 79.8452 7.63084 79.8452 7.28788C78.0232 7.28788 76.287 7.28788 74.5293 7.28788C74.5293 26.4936 74.5293 45.6779 74.5293 64.8407C76.3299 64.8407 78.0661 64.8407 79.8452 64.8407C79.8452 63.426 79.8452 62.0542 79.8452 60.7038C79.8452 54.2947 79.8452 47.9071 79.8452 41.4981C79.8452 40.3406 80.574 39.6761 81.4528 40.0405C81.8172 40.1691 82.053 40.4478 82.3102 40.6621ZM40.2334 31.4879C40.2334 32.6669 40.2763 33.7386 40.212 34.8104C40.1048 36.5466 40.1905 38.2185 41.348 39.6761C41.4552 39.8261 41.5409 39.9976 41.6052 40.1691C42.1197 41.7982 42.6556 43.4272 43.0843 45.0777C43.32 45.9565 42.8699 46.5353 42.1411 46.6425C41.3909 46.7496 40.9193 46.3424 40.7264 45.4421C40.705 45.3564 40.705 45.292 40.6835 45.2063C39.376 37.7469 32.967 32.0024 25.4004 31.5308C14.9402 30.8663 6.49479 39.7404 7.69515 50.1363C8.48824 57.0813 13.6541 62.8901 20.4061 64.4549C27.3939 66.0625 34.5317 63.1688 38.3471 57.1884C39.5475 55.3236 40.3406 53.2873 40.7264 51.1009C40.7693 50.8008 40.855 50.3507 41.0694 50.2435C41.4552 50.0077 41.9911 49.8148 42.4198 49.8791C43.0199 49.9649 43.2986 50.5436 43.1486 51.1224C42.6556 52.9015 42.3555 54.7877 41.4981 56.3739C40.5121 58.2388 40.1262 60.0822 40.2763 62.1185C40.3406 63.0402 40.2977 63.9619 40.2977 64.905C42.3126 64.905 44.1989 64.905 46.128 64.905C46.128 49.3433 46.128 33.8244 46.128 18.2197C45.6136 18.2197 45.1634 18.2197 44.7133 18.2197C39.3117 18.2197 33.8887 18.2197 28.487 18.2197C26.9866 18.2197 25.7862 18.9914 25.6576 20.2989C25.5076 21.6279 25.6148 22.9997 25.6148 24.4358C25.9149 24.4358 26.1935 24.4358 26.4722 24.4358C31.5951 24.4358 36.6966 24.4358 41.8196 24.4358C42.8485 24.4358 43.4058 24.8431 43.4272 25.5933C43.4486 26.365 42.8485 26.8366 41.7982 26.8366C41.3266 26.8366 40.855 26.8366 40.362 26.8366C40.362 27.6297 40.362 28.337 40.362 29.0872C41.0051 29.0872 41.6052 29.0658 42.184 29.0872C42.9128 29.1087 43.4486 29.6445 43.4272 30.2876C43.4272 30.9521 42.9128 31.4451 42.1625 31.4879C41.5195 31.5094 40.9408 31.4879 40.2334 31.4879ZM48.5716 18.2197C48.5716 33.7815 48.5716 49.3004 48.5716 64.8407C54.0804 64.8407 59.5463 64.8407 65.0122 64.8407C65.0122 45.6136 65.0122 26.4722 65.0122 7.30932C59.5034 7.30932 54.0375 7.30932 48.593 7.30932C48.593 10.1602 48.593 12.9467 48.593 15.7333C49.1289 15.7333 49.6219 15.7333 50.072 15.7333C51.4224 12.0893 53.9732 10.3531 57.1241 10.8675C60.1036 11.3605 62.29 13.7827 62.3757 16.6764C62.4614 19.7845 60.5323 22.3138 57.5314 23.0211C54.2947 23.7714 51.7868 22.1637 50.0292 18.2197C49.5576 18.2197 49.086 18.2197 48.5716 18.2197ZM2.44358 69.535C28.2727 69.535 54.0589 69.535 79.8238 69.535C79.8238 68.7633 79.8238 68.056 79.8238 67.37C53.9946 67.37 28.2513 67.37 2.44358 67.37C2.44358 68.0774 2.44358 68.7633 2.44358 69.535ZM48.5716 4.77999C59.0533 4.77999 69.4492 4.77999 79.8666 4.77999C79.8666 3.9869 79.8666 3.23668 79.8666 2.46502C69.4278 2.46502 59.0319 2.46502 48.5716 2.46502C48.5716 3.25811 48.5716 3.9869 48.5716 4.77999ZM52.7085 18.1768C53.2659 19.9988 55.0878 21.0491 56.9312 20.7062C58.7961 20.3632 60.0822 18.6484 59.975 16.6764C59.8678 14.833 58.2816 13.3111 56.3954 13.2039C54.7234 13.1182 53.0086 14.3185 52.7729 15.7761C53.6517 15.7761 54.5305 15.7547 55.4093 15.7761C56.2882 15.7976 56.8026 16.2477 56.8026 16.9765C56.8026 17.7267 56.3096 18.1554 55.4093 18.1768C54.5305 18.1983 53.6517 18.1768 52.7085 18.1768ZM72.0429 7.30932C70.4781 7.30932 69.0205 7.30932 67.563 7.30932C67.563 9.02411 67.563 10.6746 67.563 12.3465C69.0848 12.3465 70.5424 12.3465 72.0429 12.3465C72.0429 10.6532 72.0429 9.00268 72.0429 7.30932ZM72.0429 64.8622C72.0429 63.1688 72.0429 61.5183 72.0429 59.8464C70.521 59.8464 69.042 59.8464 67.563 59.8464C67.563 61.5397 67.563 63.2117 67.563 64.8622C69.0848 64.8622 70.5424 64.8622 72.0429 64.8622ZM67.5201 18.7341C69.0848 18.7341 70.5639 18.7341 72.0429 18.7341C72.0429 17.4052 72.0429 16.1191 72.0429 14.833C70.521 14.833 69.042 14.833 67.5201 14.833C67.5201 16.162 67.5201 17.4266 67.5201 18.7341ZM67.5201 25.1646C69.0848 25.1646 70.5639 25.1646 72.0429 25.1646C72.0429 23.8357 72.0429 22.5496 72.0429 21.2635C70.521 21.2635 69.042 21.2635 67.5201 21.2635C67.5201 22.5924 67.5201 23.8571 67.5201 25.1646ZM67.563 34.103C67.563 35.4748 67.563 36.7609 67.563 38.047C69.0848 38.047 70.5424 38.047 72.0429 38.047C72.0429 36.7181 72.0429 35.432 72.0429 34.103C70.521 34.103 69.0634 34.103 67.563 34.103ZM72.0643 27.694C70.4996 27.694 69.0205 27.694 67.5415 27.694C67.5415 29.0444 67.5415 30.3305 67.5415 31.5951C69.0848 31.5951 70.5639 31.5951 72.0643 31.5951C72.0643 30.2876 72.0643 29.0229 72.0643 27.694ZM67.5201 44.4775C69.0634 44.4775 70.521 44.4775 72.0429 44.4775C72.0429 43.1486 72.0429 41.8625 72.0429 40.5549C70.521 40.5549 69.042 40.5549 67.5201 40.5549C67.5201 41.8839 67.5201 43.1486 67.5201 44.4775ZM67.5415 50.8866C69.1063 50.8866 70.5853 50.8866 72.0643 50.8866C72.0643 49.5576 72.0643 48.2715 72.0643 46.9854C70.5424 46.9854 69.0634 46.9854 67.5415 46.9854C67.5415 48.2929 67.5415 49.579 67.5415 50.8866ZM72.0643 53.4159C70.4996 53.4159 69.0205 53.4159 67.5415 53.4159C67.5415 54.7663 67.5415 56.0524 67.5415 57.3171C69.0848 57.3171 70.5639 57.3171 72.0643 57.3171C72.0643 55.9881 72.0643 54.7449 72.0643 53.4159ZM10.7389 61.8398C10.7389 62.8687 10.7389 63.8547 10.7389 64.8193C12.0893 64.8193 13.354 64.8193 14.6615 64.8193C13.3325 63.8118 12.0679 62.8473 10.7389 61.8398ZM10.7389 31.5308C10.7389 32.5383 10.7389 33.5243 10.7389 34.5317C12.0679 33.5243 13.354 32.5597 14.6829 31.5308C13.354 31.5308 12.0679 31.5308 10.7389 31.5308ZM37.7898 61.8184C36.4394 62.8473 35.1533 63.8333 33.8244 64.8407C35.1748 64.8407 36.4609 64.8407 37.7898 64.8407C37.7898 63.8333 37.7898 62.8473 37.7898 61.8184ZM10.7175 29.0658C11.5749 29.0658 12.368 29.0658 13.2254 29.0658C13.2254 28.337 13.2254 27.6297 13.2254 26.8794C12.3894 26.8794 11.5749 26.8794 10.7175 26.8794C10.7175 27.6082 10.7175 28.2727 10.7175 29.0658ZM33.8244 31.5308C35.1748 32.5597 36.4608 33.5457 37.7684 34.5317C37.7684 33.5028 37.7684 32.5168 37.7684 31.5308C36.4394 31.5308 35.1748 31.5308 33.8244 31.5308ZM27.9297 26.8794C27.0938 26.8794 26.3007 26.8794 25.529 26.8794C25.529 27.6511 25.529 28.337 25.529 29.0229C26.365 29.0229 27.1152 29.0229 27.9297 29.0229C27.9297 28.3156 27.9297 27.6297 27.9297 26.8794ZM35.3034 26.858C35.3034 27.6511 35.3034 28.337 35.3034 29.0444C36.1608 29.0444 36.9539 29.0444 37.7684 29.0444C37.7684 28.2941 37.7684 27.6082 37.7684 26.858C36.9324 26.858 36.1393 26.858 35.3034 26.858ZM15.7118 29.0229C16.5692 29.0229 17.3409 29.0229 18.0911 29.0229C18.0911 28.2727 18.0911 27.5653 18.0911 26.8794C17.2551 26.8794 16.5049 26.8794 15.7118 26.8794C15.7118 27.6082 15.7118 28.2941 15.7118 29.0229ZM22.9783 29.0444C22.9783 28.2727 22.9783 27.5653 22.9783 26.8794C22.1423 26.8794 21.3921 26.8794 20.6419 26.8794C20.6419 27.6297 20.6419 28.337 20.6419 29.0444C21.435 29.0444 22.1852 29.0444 22.9783 29.0444ZM30.3948 29.0444C31.2307 29.0444 31.9809 29.0444 32.7955 29.0444C32.7955 28.2941 32.7955 27.6082 32.7955 26.9009C31.9595 26.9009 31.1879 26.9009 30.3948 26.9009C30.3948 27.6297 30.3948 28.2941 30.3948 29.0444Z" fill="#3C65F3"/>
<path d="M30.4377 43.0842C30.4377 46.5138 27.6726 49.2575 24.2645 49.2789C20.8563 49.3004 18.0055 46.4281 18.0483 43.0414C18.0912 39.6332 20.8777 36.8681 24.2859 36.8895C27.7155 36.911 30.4592 39.6761 30.4377 43.0842ZM28.037 43.1271C28.0585 41.0265 26.408 39.3331 24.2859 39.3117C22.1853 39.2902 20.4919 40.9622 20.449 43.0414C20.4276 45.0991 22.121 46.8353 24.2002 46.8568C26.3008 46.8996 28.0156 45.2277 28.037 43.1271Z" fill="#3C65F3"/>
<path d="M24.3504 51.6582C25.8723 51.6582 27.3941 51.6582 28.9375 51.6582C29.902 51.6582 30.4165 52.0869 30.4379 52.8371C30.4593 53.6088 29.9449 54.0589 28.9803 54.0589C25.8294 54.0804 22.657 54.0804 19.5061 54.0589C18.6058 54.0589 18.0914 53.5873 18.0699 52.88C18.0485 52.1512 18.6058 51.6582 19.5489 51.6582C21.1351 51.6582 22.7428 51.6582 24.3504 51.6582Z" fill="#3C65F3"/>
<path d="M24.2426 58.7746C23.3638 58.7746 22.4849 58.796 21.5847 58.7746C20.6844 58.7531 20.1914 58.2816 20.1914 57.5528C20.1914 56.824 20.6844 56.3739 21.5847 56.3739C23.3852 56.3524 25.1643 56.3524 26.9649 56.3739C27.8437 56.3739 28.2938 56.8026 28.3153 57.5099C28.3367 58.2601 27.8437 58.7317 26.9649 58.7531C26.0646 58.796 25.1429 58.7746 24.2426 58.7746Z" fill="#3C65F3"/>
</g>
<defs>
<clipPath id="clip0_69_834">
<rect width="82.3102" height="72" fill="white"/>
</clipPath>
</defs>
</svg>
