<svg width="46" height="72" viewBox="0 0 46 72" fill="none" xmlns="http://www.w3.org/2000/svg">
<g clip-path="url(#clip0_69_825)">
<path d="M8.46561 72C7.3828 71.6344 6.24374 71.4094 5.2453 70.8891C1.91249 69.1172 0.0703013 66.2766 0.0421763 62.5078C-0.0281362 52.4953 -1.12371e-05 42.4969 0.0281138 32.4844C0.0562388 25.7344 5.18905 20.0672 11.925 19.2375C12.0797 19.2234 12.2344 19.1812 12.5016 19.125C12.5016 17.9859 12.5016 16.8469 12.5016 15.7078C12.5016 14.1891 12.7406 13.95 14.2312 13.95C14.8359 13.95 15.4406 13.95 16.1156 13.95C16.1156 13.2469 16.1016 12.6141 16.1156 11.9953C16.1297 11.1516 16.5094 10.7016 17.1703 10.6875C17.8594 10.6734 18.2531 11.1516 18.2672 12.0234C18.2812 12.6281 18.2672 13.2328 18.2672 13.8938C20.0531 13.8938 21.7828 13.8938 23.5547 13.8938C23.5547 10.9969 23.5547 8.12813 23.5547 5.21719C21.7828 5.21719 20.0672 5.21719 18.2672 5.21719C18.2672 5.89219 18.2812 6.53906 18.2672 7.18594C18.2531 8.00156 17.8594 8.49375 17.2266 8.52187C16.5656 8.55 16.1437 8.04375 16.1297 7.18594C16.1156 6.24375 16.1156 5.31563 16.1297 4.37344C16.1437 3.38906 16.4812 3.05156 17.4375 3.0375C19.7859 3.02344 22.1203 3.02344 24.4687 3.0375C25.3687 3.0375 25.7484 3.41719 25.7484 4.33125C25.7625 5.35781 25.7484 6.38438 25.7484 7.49531C26.4656 7.49531 27.1125 7.52344 27.7594 7.46719C27.9141 7.45312 28.1109 7.15781 28.1531 6.96094C28.9969 3.38906 31.1765 1.13906 34.7203 0.210938C35.0156 0.140625 35.3109 0.0703125 35.6062 0C36.3094 0 37.0125 0 37.7156 0C38.7422 0.365625 39.8391 0.61875 40.7812 1.13906C44.2547 3.0375 45.9 7.0875 44.8594 10.8703C43.8047 14.6953 40.2187 17.2969 36.225 17.1562C32.3578 17.0156 28.9687 14.1469 28.2094 10.2797C28.1109 9.75937 27.9281 9.61875 27.4359 9.64687C26.9016 9.68906 26.3672 9.66094 25.7906 9.66094C25.7906 11.1094 25.7906 12.4734 25.7906 13.95C26.5359 13.95 27.2672 13.95 28.0125 13.95C28.9969 13.9641 29.3766 14.3297 29.3766 15.3141C29.3906 16.5797 29.3766 17.8453 29.3766 19.0125C30.7125 19.3781 32.0062 19.6313 33.2297 20.0813C38.2781 21.9937 41.7375 26.8594 41.8078 32.2594C41.8781 38.3484 41.8359 44.4516 41.8359 50.5406C41.8359 51.3563 41.4281 51.8484 40.7812 51.8484C40.1203 51.8484 39.7125 51.3281 39.7125 50.4703C39.7125 44.5922 39.7265 38.7 39.7125 32.8219C39.6984 27.0844 35.9156 22.5141 30.2906 21.4453C29.6016 21.3188 28.8984 21.2625 28.1953 21.2625C23.3719 21.2484 18.5344 21.2344 13.7109 21.2625C8.02968 21.2906 3.4453 25.1016 2.37655 30.6703C2.3203 30.9375 2.30624 31.2188 2.26405 31.6125C2.61561 31.6125 2.91093 31.6125 3.20624 31.6125C14.1469 31.6125 25.1015 31.6125 36.0422 31.6125C37.1812 31.6125 37.7015 31.9359 37.7015 32.6672C37.7015 33.3984 37.1672 33.75 36.0562 33.75C25.0594 33.75 14.0766 33.75 3.07968 33.75C2.79843 33.75 2.53124 33.75 2.22186 33.75C2.22186 42.9469 2.22186 52.0875 2.22186 61.3125C2.51718 61.3125 2.78436 61.3125 3.05155 61.3125C14.0484 61.3125 25.0312 61.3125 36.0281 61.3125C37.1672 61.3125 37.6875 61.6359 37.7015 62.3672C37.7156 63.0984 37.1953 63.45 36.0703 63.45C25.1297 63.45 14.175 63.45 3.23436 63.45C2.95311 63.45 2.67186 63.45 2.22186 63.45C2.4328 64.1391 2.55936 64.7719 2.81249 65.3344C4.21874 68.3578 6.63749 69.8766 9.94218 69.8906C17.2828 69.9187 24.6094 69.9047 31.95 69.9047C33.2015 69.9047 34.425 69.6937 35.55 69.1031C38.1656 67.7109 39.6 65.5312 39.6984 62.5641C39.7687 60.2156 39.7125 57.8812 39.7265 55.5328C39.7265 55.2938 39.7125 55.0547 39.7828 54.8297C39.9375 54.2953 40.3031 53.9859 40.8797 54.0281C41.4422 54.0703 41.85 54.3937 41.85 54.9562C41.8359 57.9797 42.0328 61.0312 41.6812 64.0125C41.175 68.1891 37.9125 71.1844 33.7219 71.9016C33.6094 71.9156 33.5109 71.9859 33.3984 72.0281C25.0594 72 16.7625 72 8.46561 72ZM36.6047 2.1375C33.089 2.12344 30.15 5.02031 30.1359 8.55C30.1078 12.0656 33.0187 15.0047 36.5484 15.0188C40.064 15.0469 43.0031 12.1359 43.0172 8.60625C43.0453 5.09063 40.1344 2.15156 36.6047 2.1375ZM27.1828 16.1438C22.9922 16.1438 18.8297 16.1438 14.6672 16.1438C14.6672 17.1562 14.6672 18.0984 14.6672 19.0828C18.8578 19.0828 23.0062 19.0828 27.1828 19.0828C27.1828 18.0844 27.1828 17.1281 27.1828 16.1438Z" fill="#3C65F3"/>
<path d="M13.6121 48.8672C13.0074 48.8672 12.5715 48.8672 12.1215 48.8672C11.573 48.8672 11.2777 48.6 11.2777 48.0656C11.2777 47.5593 11.573 47.2922 12.0793 47.2922C12.9512 47.2922 13.809 47.2922 14.6809 47.2922C15.1027 47.2922 15.4684 47.4328 15.4684 47.9109C15.4543 49.1062 15.4965 50.3015 15.3137 51.4828C15.1309 52.7484 14.3012 53.6343 13.0355 53.8593C12.1355 54.0281 11.1652 54.0562 10.2652 53.8875C8.74648 53.6062 7.8043 52.425 7.74805 50.8218C7.67773 48.7406 7.67773 46.6453 7.74805 44.564C7.8043 42.8343 8.90117 41.7375 10.6309 41.4422C11.7699 41.2453 12.8809 41.3578 13.9074 41.9203C14.934 42.4828 15.4684 43.3687 15.4824 44.55C15.4965 45.1125 15.2574 45.45 14.6809 45.4922C14.1324 45.5203 13.6121 45.4359 13.5418 44.7468C13.4012 43.3547 12.3043 42.9187 11.0949 43.1297C10.3074 43.2703 9.74492 43.7062 9.7168 44.5078C9.64648 46.6312 9.63242 48.7687 9.7168 50.8922C9.75898 51.8625 10.4762 52.3265 11.5449 52.3406C12.6137 52.3547 13.3168 51.8906 13.4715 50.9765C13.598 50.3297 13.5699 49.6406 13.6121 48.8672Z" fill="#3C65F3"/>
<path d="M23.1747 51.2016C21.7825 51.2016 20.4325 51.2016 19.0263 51.2016C18.8294 51.8906 18.6325 52.5937 18.4216 53.2828C18.2247 53.9156 17.8731 54.0984 17.2544 53.9156C16.5794 53.7187 16.3825 53.3812 16.5794 52.7203C17.6481 49.2328 18.731 45.7453 19.7856 42.2437C19.9825 41.5687 20.4044 41.2734 21.0513 41.2734C21.7122 41.2734 22.1903 41.4984 22.4013 42.2297C23.4419 45.7312 24.5247 49.2047 25.5935 52.7062C25.8044 53.3953 25.6216 53.6906 24.9466 53.9156C24.2997 54.1125 23.9763 53.9438 23.7653 53.2266C23.5685 52.5656 23.3716 51.8906 23.1747 51.2016ZM19.4622 49.5703C20.6013 49.5703 21.6138 49.5703 22.7106 49.5703C22.1763 47.7422 21.67 45.9844 21.1497 44.2406C21.1075 44.2406 21.0513 44.2547 21.0091 44.2547C20.5028 46.0125 19.9966 47.7703 19.4622 49.5703Z" fill="#3C65F3"/>
<path d="M30.7824 41.2031C31.598 41.4 32.4277 41.5406 33.2012 41.8219C33.8199 42.0469 33.9605 42.5953 33.6793 43.1437C33.3699 43.7203 32.948 43.6078 32.4277 43.4391C31.7105 43.2141 30.9371 43.0594 30.1918 43.0453C29.3058 43.0313 28.7433 43.5094 28.6027 44.1703C28.4621 44.8453 28.7715 45.45 29.559 45.8578C30.4308 46.3078 31.359 46.6594 32.2168 47.1094C33.5808 47.8266 34.1574 49.0219 34.1293 50.5266C34.0871 52.4953 33.0183 53.7047 31.0777 54.0422C29.8824 54.2531 28.7293 54.0984 27.6746 53.5359C27.2387 53.2969 26.8308 52.9313 26.5215 52.5375C26.1558 52.0875 26.3527 51.5953 26.7465 51.2297C27.1683 50.8359 27.534 51.0891 27.8433 51.3984C28.6308 52.1859 29.573 52.4812 30.6699 52.3125C31.359 52.2 31.9074 51.8766 32.1183 51.1594C32.3433 50.4422 32.2027 49.7953 31.6543 49.3031C31.3168 48.9938 30.8949 48.7547 30.4871 48.5438C29.9105 48.2484 29.2918 48.0234 28.7012 47.7281C27.0137 46.8562 26.3808 45.5766 26.7465 43.8188C27.0277 42.4547 28.2652 41.5125 29.9808 41.3719C30.234 41.3438 30.5012 41.3719 30.7543 41.3719C30.7543 41.3016 30.7683 41.2453 30.7824 41.2031Z" fill="#3C65F3"/>
<path d="M39.7973 8.70465C39.727 9.85777 39.1645 10.8703 37.9832 11.4468C36.7738 12.0375 35.5926 11.8968 34.566 11.0531C33.5676 10.2375 33.1316 9.12652 33.4832 7.8609C33.6379 7.31246 33.5113 6.98902 33.1035 6.66559C32.8645 6.48277 32.6535 6.25777 32.4707 6.00465C32.1473 5.54059 32.1895 5.06246 32.5832 4.66871C32.977 4.27496 33.5676 4.1484 33.9051 4.55621C34.6645 5.45621 35.4941 5.54059 36.6332 5.42809C38.3488 5.24527 39.7973 6.8484 39.7973 8.70465ZM37.6457 8.54996C37.6316 7.95934 37.1254 7.48121 36.5488 7.50934C35.9863 7.53746 35.5223 8.00152 35.5223 8.56402C35.5082 9.14059 36.0145 9.64684 36.591 9.64684C37.1676 9.64684 37.6598 9.14059 37.6457 8.54996Z" fill="#3C65F3"/>
</g>
<defs>
<clipPath id="clip0_69_825">
<rect width="45.1688" height="72" fill="white"/>
</clipPath>
</defs>
</svg>
