<svg width="42" height="42" viewBox="0 0 42 42" fill="none" xmlns="http://www.w3.org/2000/svg">
<path d="M8.03661 21.0168C6.716 20.9265 6.716 20.9265 6.716 19.6285C6.716 19.0754 6.716 18.5336 6.716 17.9805C6.716 17.1453 6.84016 17.0098 7.698 16.9082C7.32551 16.0504 6.96432 15.1926 6.56927 14.267C6.50154 14.425 6.45639 14.5153 6.42253 14.6056C5.54212 17.0663 3.19437 18.5675 0.598291 18.274C0.372545 18.2514 0.0677882 18.0031 6.44289e-05 17.7999C-0.056372 17.5968 0.0790754 17.2469 0.248385 17.0776C0.666014 16.6261 1.19652 16.2762 1.60286 15.8134C2.15594 15.1926 2.46069 14.4363 2.57357 13.5785C2.05435 13.4205 1.94148 13.0367 1.96405 12.5514C1.98663 11.8515 1.97534 11.1404 1.97534 10.4406C1.97534 9.70695 2.17851 9.50378 2.88961 9.50378C5.66628 9.50378 8.44296 9.4925 11.2309 9.51507C11.5018 9.51507 11.8179 9.62794 12.0436 9.78596C13.2852 10.6889 14.5042 11.6258 15.7345 12.5401C15.87 12.6416 16.0054 12.7319 16.1973 12.8674C16.1973 12.2127 16.1973 11.6258 16.1973 11.0389C16.1747 8.34119 17.2245 6.17403 19.3691 4.53738C19.4819 4.44708 19.5722 4.24391 19.5722 4.08588C19.5948 3.01359 19.5835 1.9413 19.5835 0.869008C19.5835 0.259494 19.8205 0.0337482 20.4301 0.0224609C22.1231 0.0224609 23.8162 0.0224609 25.5093 0.0224609C26.1188 0.0224609 26.3446 0.259494 26.3559 0.869008C26.3559 1.87358 26.3785 2.87814 26.3446 3.87143C26.3333 4.24391 26.4462 4.44708 26.7622 4.63896C29.7308 6.43364 32.6993 8.22832 35.6566 10.0456C39.167 12.2014 41.21 15.328 41.8195 19.3914C41.9098 19.9784 41.9211 20.5766 41.9211 21.1636C41.9323 26.9088 41.9211 32.6427 41.9211 38.388C41.9211 40.589 40.4989 42.0112 38.2865 42.0112C32.1801 42.0112 26.0737 42.0112 19.956 42.0225C19.0982 42.0225 18.308 41.8757 17.5744 41.3452C17.4389 41.8983 17.0664 42.0225 16.5698 42.0225C12.9353 42.0112 9.2895 42.0112 5.655 42.0112C4.87617 42.0112 4.68429 41.8193 4.68429 41.0405C4.68429 37.8123 4.68429 34.5841 4.68429 31.3447C4.68429 29.6177 5.41796 28.3084 6.90789 27.428C7.19007 27.2587 7.47225 27.1007 7.73186 26.9088C8.16077 26.5927 8.14949 26.2654 7.72057 25.9606C6.45639 25.0802 6.34352 23.2066 7.57383 22.2923C8.05919 21.9198 8.14949 21.5586 8.03661 21.0168ZM17.5631 27.7328C25.261 27.7328 32.9138 27.7328 40.5779 27.7328C40.5779 25.3624 40.6456 23.026 40.5666 20.6895C40.4198 16.7841 38.7155 13.6462 35.4309 11.5129C32.2366 9.43606 28.952 7.52851 25.7012 5.55323C25.5545 5.46293 25.3626 5.42907 25.182 5.42907C23.7259 5.41778 22.2812 5.41778 20.8251 5.42907C20.5881 5.42907 20.3172 5.51937 20.1366 5.65482C18.4096 6.96414 17.5631 8.71367 17.5631 10.8695C17.5631 16.3439 17.5631 21.8182 17.5631 27.2926C17.5631 27.428 17.5631 27.5634 17.5631 27.7328ZM40.5553 37.2254C40.5553 34.5051 40.5553 31.8188 40.5553 29.1549C32.8799 29.1549 25.2272 29.1549 17.5857 29.1549C17.5857 31.8639 17.5857 34.539 17.5857 37.2254C25.2497 37.2254 32.8912 37.2254 40.5553 37.2254ZM9.43624 20.9942C9.43624 21.2877 9.43624 21.536 9.43624 21.7844C9.43624 22.36 9.1992 22.8115 8.70256 23.1275C7.8673 23.658 7.8673 24.4143 8.70256 24.9561C9.2895 25.3286 9.53782 25.9155 9.41366 26.5927C9.2895 27.2474 8.95088 27.7666 8.37523 28.1165C8.0479 28.3197 7.72057 28.5003 7.40453 28.7035C6.77244 29.1211 6.35481 29.6967 6.16292 30.4417C9.52654 30.4417 12.8676 30.4417 16.2425 30.4417C16.2086 29.8209 16.1973 29.234 16.1296 28.647C15.8023 25.7801 14.651 23.2969 12.6983 21.1748C12.608 21.0733 12.4387 21.0055 12.3032 20.9942C11.3664 20.983 10.4295 20.9942 9.43624 20.9942ZM6.07263 31.8526C6.07263 33.8956 6.07263 35.9048 6.07263 37.8913C9.45881 37.8913 12.8224 37.8913 16.1747 37.8913C16.1747 35.8596 16.1747 33.8618 16.1747 31.8526C12.8111 31.8526 9.45881 31.8526 6.07263 31.8526ZM17.5744 38.625C17.5969 39.7989 18.4661 40.6341 19.6625 40.6341C25.9383 40.6341 32.214 40.6341 38.4897 40.6341C38.5574 40.6341 38.6365 40.6341 38.7042 40.6341C39.7539 40.5551 40.5666 39.6973 40.5666 38.625C32.9138 38.625 25.261 38.625 17.5744 38.625ZM3.36368 12.1902C4.36824 12.1902 5.35024 12.224 6.33223 12.1789C6.95303 12.1563 7.28037 12.3708 7.5174 12.9464C8.0479 14.2783 8.63484 15.5876 9.1992 16.9082C10.1812 16.9082 11.1519 16.9082 12.1452 16.9082C12.1452 16.5471 12.1452 16.2084 12.1452 15.8811C12.1452 15.1926 12.2355 15.0684 12.8901 14.8427C13.7141 14.5718 14.5381 14.2896 15.4185 13.9961C15.2492 13.8607 15.1476 13.7704 15.046 13.6914C13.8721 12.811 12.7096 11.9193 11.5244 11.0614C11.3438 10.9373 11.0955 10.847 10.881 10.847C8.51068 10.8357 6.14035 10.8357 3.77002 10.8357C3.63457 10.8357 3.49912 10.847 3.36368 10.8583C3.36368 11.3097 3.36368 11.7274 3.36368 12.1902ZM6.07263 40.6115C9.4701 40.6115 12.8224 40.6115 16.1747 40.6115C16.1747 40.1488 16.1747 39.7311 16.1747 39.3022C12.7886 39.3022 9.43624 39.3022 6.07263 39.3022C6.07263 39.7424 6.07263 40.1601 6.07263 40.6115ZM14.3914 20.9604C15.0009 21.9311 15.5991 22.8792 16.1747 23.8161C16.1747 20.9604 16.1747 18.0934 16.1747 15.1813C15.4862 15.407 14.8316 15.6328 14.1769 15.8472C13.4319 16.0843 13.4319 16.0843 13.5109 16.8744C13.5109 16.8857 13.5335 16.897 13.5787 16.9421C13.669 16.9421 13.7931 16.9421 13.9173 16.9421C14.6623 16.9421 14.8654 17.1453 14.8654 17.9015C14.8654 18.6013 14.8541 19.3124 14.8654 20.0122C14.8654 20.4299 14.809 20.8024 14.3914 20.9604ZM20.9718 4.02945C22.3376 4.02945 23.6582 4.02945 24.9788 4.02945C24.9788 3.12647 24.9788 2.24606 24.9788 1.37694C23.6244 1.37694 22.3037 1.37694 20.9718 1.37694C20.9718 2.26863 20.9718 3.13775 20.9718 4.02945ZM13.4771 18.3192C11.6598 18.3192 9.87644 18.3192 8.11563 18.3192C8.11563 18.7819 8.11563 19.1996 8.11563 19.6172C9.92159 19.6172 11.6937 19.6172 13.4771 19.6172C13.4771 19.177 13.4771 18.7594 13.4771 18.3192ZM2.74288 16.6035C3.93933 16.3326 5.2035 14.7975 5.25994 13.5785C4.83102 13.5785 4.40211 13.5785 3.9619 13.5785C3.82645 14.7072 3.40883 15.6892 2.74288 16.6035Z" fill="#09094C"/>
<path d="M27.7216 15.9941C27.7216 15.204 27.7103 14.4139 27.7216 13.6238C27.7554 11.4115 30.0806 10.1021 31.9543 11.2647C33.4442 12.1903 35.0132 13.0256 36.2435 14.3236C38.1284 16.2876 39.1217 18.6353 39.212 21.3556C39.2572 22.7665 39.2233 24.1774 39.2233 25.5883C39.2233 26.164 38.975 26.4123 38.3993 26.4123C37.5641 26.4123 36.7401 26.4123 35.9049 26.4123C34.7987 26.4123 33.8393 26.0285 33.0492 25.2497C31.6608 23.8726 30.2725 22.4843 28.8954 21.096C28.1053 20.2946 27.7216 19.3239 27.7216 18.1951C27.7216 17.4615 27.7216 16.7278 27.7216 15.9941ZM37.8801 25.0578C37.8801 23.8501 37.9027 22.6875 37.8801 21.5136C37.8124 18.8611 36.8417 16.5698 34.81 14.8541C33.7377 13.9398 32.4961 13.2174 31.2996 12.4499C30.2612 11.784 29.0873 12.4725 29.0873 13.7028C29.076 15.2266 29.0873 16.7504 29.0873 18.2741C29.0873 18.9627 29.3244 19.5835 29.8097 20.0688C31.2319 21.5023 32.6541 22.9245 34.0876 24.3467C34.5391 24.7869 35.0922 25.0352 35.713 25.0465C36.4015 25.0691 37.1013 25.0578 37.8801 25.0578Z" fill="#09094C"/>
<path d="M26.3671 13.5223C26.3445 14.7188 26.0962 15.8475 25.419 16.852C24.1209 18.7483 21.8522 18.7596 20.5429 16.8633C19.2787 15.0348 19.2787 12.0437 20.5429 10.2151C21.8635 8.33015 24.1209 8.33015 25.419 10.2377C26.0962 11.231 26.3445 12.3484 26.3671 13.5223ZM25.0126 13.748C25.0126 12.5403 24.7192 11.5583 24.2225 10.8924C23.4888 9.92165 22.4617 9.92165 21.728 10.9036C20.6896 12.2807 20.6896 14.7752 21.7167 16.1635C22.473 17.1794 23.5114 17.1794 24.2564 16.1522C24.8095 15.3847 24.9901 14.493 25.0126 13.748Z" fill="#09094C"/>
</svg>
