<svg width="135" height="120" viewBox="0 0 135 120" fill="none" xmlns="http://www.w3.org/2000/svg">
<path fill-rule="evenodd" clip-rule="evenodd" d="M42.8118 41.6695C42.8118 41.6695 57.0856 14.9028 66.5421 6.00244C66.5421 6.00244 53.8335 30.6496 58.7539 43.2076C63.6742 55.7656 75.277 54.9309 75.277 54.9309C75.277 54.9309 77.1514 52.8958 75.9049 50.8512C74.6584 48.8067 72.3997 50.0165 71.828 48.1783C71.4549 46.7458 71.2784 45.2692 71.3032 43.7891C71.3032 43.7891 71.6406 39.8125 73.6837 40.1502C74.3308 40.2874 74.9441 40.5521 75.488 40.9289C76.0318 41.3057 76.4953 41.787 76.8515 42.3448L79.8131 48.7691C80.0019 45.9268 79.5069 43.0805 78.3698 40.469C76.4953 36.2299 77.4326 33.979 77.4326 33.979C77.4326 33.979 78.7728 27.5734 82.8497 27.3108L90.3474 41.8383C92.5967 45.9555 93.5527 46.8934 93.6651 51.7422C94.3118 80.1314 55.8579 92.0704 41.631 62.9966C41.631 63.0153 36.1951 53.7023 42.8118 41.6695Z" fill="url(#paint0_linear_315_10)"/>
<path fill-rule="evenodd" clip-rule="evenodd" d="M75.5674 37.5899C75.5674 37.5899 72.5402 34.7763 70.0285 34.495C70.0285 34.495 66.5795 33.4539 66.4202 32.4035C66.2609 31.3531 68.5102 31.1468 68.5102 31.1468C68.5102 31.1468 75.305 30.9967 75.5674 37.5899Z" fill="url(#paint1_linear_315_10)"/>
<path fill-rule="evenodd" clip-rule="evenodd" d="M81.0407 25.0503C81.0407 25.0503 78.0041 22.2367 75.4923 21.9647C75.4923 21.9647 72.0434 20.9143 71.8841 19.8733C71.7247 18.8323 73.9741 18.6166 73.9741 18.6166C73.9741 18.6166 80.7782 18.4571 81.0407 25.0503Z" fill="url(#paint2_linear_315_10)"/>
<path fill-rule="evenodd" clip-rule="evenodd" d="M66.9454 41.9788C67.5015 41.9788 68.0451 41.8137 68.5075 41.5046C68.9699 41.1954 69.3302 40.756 69.5431 40.2419C69.7559 39.7278 69.8115 39.162 69.7031 38.6163C69.5946 38.0705 69.3268 37.5691 68.9336 37.1756C68.5404 36.7822 68.0394 36.5142 67.494 36.4056C66.9486 36.2971 66.3832 36.3528 65.8695 36.5657C65.3557 36.7787 64.9166 37.1393 64.6076 37.602C64.2987 38.0647 64.1338 38.6087 64.1338 39.1652C64.1338 39.9114 64.43 40.627 64.9573 41.1547C65.4846 41.6823 66.1997 41.9788 66.9454 41.9788Z" fill="url(#paint3_linear_315_10)"/>
<path fill-rule="evenodd" clip-rule="evenodd" d="M72.4845 29.374C72.9001 29.3758 73.3069 29.2542 73.6534 29.0245C73.9999 28.7948 74.2704 28.4673 74.4307 28.0836C74.5911 27.6999 74.634 27.2772 74.5541 26.8691C74.4741 26.461 74.2749 26.0858 73.9817 25.791C73.6885 25.4963 73.3144 25.2952 72.9069 25.2134C72.4994 25.1316 72.0768 25.1727 71.6927 25.3314C71.3085 25.4901 70.9801 25.7594 70.749 26.105C70.5179 26.4507 70.3945 26.8573 70.3945 27.2732C70.3945 27.8287 70.6144 28.3617 71.0061 28.7554C71.3978 29.1491 71.9294 29.3715 72.4845 29.374Z" fill="url(#paint4_linear_315_10)"/>
<path fill-rule="evenodd" clip-rule="evenodd" d="M66.5984 0C56.3662 0.000266449 46.4716 3.66302 38.7025 10.3264C30.9334 16.9898 25.8023 26.2142 24.2363 36.3329H27.9852C29.5394 27.2173 34.266 18.9457 41.3285 12.9819C48.391 7.01821 57.334 3.74689 66.575 3.74689C75.816 3.74689 84.759 7.01821 91.8215 12.9819C98.884 18.9457 103.611 27.2173 105.165 36.3329H108.914C107.347 26.223 102.222 17.0059 94.4634 10.3439C86.7044 3.68186 76.822 0.013365 66.5984 0V0ZM24.2363 49.4631C25.8104 59.5765 30.9454 68.7937 38.7145 75.4511C46.4835 82.1084 56.3749 85.7673 66.6031 85.7673C76.8314 85.7673 86.7227 82.1084 94.4918 75.4511C102.261 68.7937 107.396 59.5765 108.97 49.4631H105.221C103.667 58.5788 98.9403 66.8504 91.8778 72.8141C84.8153 78.7778 75.8722 82.0491 66.6312 82.0491C57.3903 82.0491 48.4472 78.7778 41.3847 72.8141C34.3222 66.8504 29.5956 58.5788 28.0414 49.4631H24.2363Z" fill="url(#paint5_linear_315_10)"/>
<path d="M17.8068 100.98C17.7982 101.845 17.5581 102.692 17.1114 103.432C16.6647 104.173 16.0278 104.78 15.267 105.191C13.1739 106.373 10.7882 106.936 8.38784 106.813C6.91667 106.831 5.44743 106.702 4.00167 106.429C2.81502 106.202 1.6466 105.889 0.505859 105.491V101.289H1.07756C2.18297 102.038 3.40117 102.605 4.68584 102.968C5.93357 103.356 7.23138 103.558 8.53779 103.568C8.85644 103.568 9.27819 103.568 9.79366 103.503C10.2225 103.469 10.6465 103.391 11.0589 103.268C11.4152 103.148 11.7481 102.967 12.043 102.734C12.1742 102.617 12.277 102.472 12.3436 102.309C12.4102 102.147 12.4388 101.971 12.4272 101.796C12.4226 101.597 12.3688 101.402 12.2707 101.228C12.1726 101.055 12.0332 100.908 11.8649 100.802C11.3673 100.471 10.805 100.25 10.2154 100.155C9.44689 100.005 8.65026 99.8545 7.79739 99.7138C6.99344 99.59 6.19829 99.4146 5.41687 99.1886C4.03583 98.8879 2.76259 98.2168 1.73361 97.2472C0.986522 96.4073 0.587659 95.3138 0.618325 94.1898C0.637892 93.3554 0.883666 92.5421 1.32938 91.8367C1.77508 91.1314 2.40397 90.5605 3.14881 90.1851C5.15054 89.072 7.42154 88.5363 9.70931 88.6376C11.0318 88.637 12.3518 88.75 13.655 88.9752C14.8014 89.1607 15.9301 89.4431 17.029 89.8193V93.8521H16.476C15.5494 93.2386 14.5393 92.7616 13.4769 92.4359C11.8758 91.9016 10.1776 91.7224 8.5003 91.9107C8.07588 91.9643 7.65814 92.0617 7.25381 92.2015C6.90744 92.312 6.58814 92.4942 6.31659 92.7361C6.19942 92.8394 6.10544 92.9663 6.04082 93.1086C5.97621 93.2508 5.94243 93.4051 5.94171 93.5614C5.92925 93.7831 5.98099 94.0036 6.09071 94.1966C6.20043 94.3896 6.36348 94.5468 6.56027 94.6493C7.28569 95.0017 8.065 95.23 8.86582 95.3246L11.012 95.7185C11.6962 95.8404 12.4272 96.0186 13.2239 96.2343C14.5027 96.53 15.684 97.1502 16.6541 98.035C17.0355 98.4222 17.3344 98.8828 17.5325 99.3891C17.7307 99.8953 17.824 100.437 17.8068 100.98Z" fill="#231F20"/>
<path d="M38.1724 100.145C38.2255 101.099 38.045 102.051 37.6464 102.919C37.2479 103.787 36.6434 104.545 35.8856 105.125C34.3673 106.276 32.1242 106.854 29.1564 106.86C26.1885 106.867 23.9486 106.288 22.4365 105.125C21.6824 104.544 21.081 103.788 20.6842 102.922C20.2874 102.056 20.1072 101.106 20.1591 100.155V88.9565H25.4075V99.9014C25.3309 100.889 25.6476 101.867 26.2885 102.621C26.6814 102.959 27.137 103.215 27.6291 103.376C28.1212 103.537 28.6402 103.599 29.1564 103.559C30.1877 103.652 31.215 103.343 32.0243 102.696C32.3596 102.327 32.6158 101.892 32.777 101.419C32.9382 100.947 33.001 100.446 32.9615 99.9483V88.9565H38.2099L38.1724 100.145Z" fill="#231F20"/>
<path d="M60.5536 106.495H55.5207L46.9359 94.4618V106.495H42.1748V88.9565H48.4167L55.7925 99.0011V88.9565H60.5817L60.5536 106.495Z" fill="#231F20"/>
<path d="M90.9094 94.4899C90.9083 95.2835 90.7456 96.0685 90.4314 96.7971C90.1305 97.5197 89.6652 98.162 89.0724 98.6728C88.2795 99.3607 87.3637 99.8921 86.3732 100.239C85.1637 100.632 83.8954 100.813 82.6244 100.774H79.4097V106.485H74.1895V88.9565H82.7743C83.8687 88.9372 84.9621 89.0347 86.0358 89.2472C86.8561 89.4143 87.6461 89.7053 88.3789 90.1101C89.1484 90.5302 89.7946 91.1446 90.2533 91.892C90.7055 92.6816 90.9324 93.5802 90.9094 94.4899ZM85.511 94.5931C85.5222 94.1255 85.3584 93.6706 85.0518 93.3176C84.766 92.9777 84.3936 92.7216 83.974 92.5767C83.4647 92.3925 82.9309 92.2851 82.3901 92.2578C81.8746 92.2578 81.1811 92.2578 80.3188 92.2578H79.3816V97.5005H80.8718C81.6054 97.5112 82.3387 97.4641 83.0649 97.3598C83.5863 97.2882 84.0838 97.0955 84.5176 96.7971C84.8391 96.5561 85.0886 96.2318 85.2392 95.8592C85.4087 95.4588 85.4948 95.0279 85.4923 94.5931H85.511Z" fill="#231F20"/>
<path d="M113.178 106.495H106.843L101.341 100.061H98.8764V106.495H93.7217V88.9565H102.475C103.506 88.9449 104.536 89.0044 105.559 89.1347C106.403 89.2494 107.221 89.5096 107.977 89.9037C108.693 90.2606 109.316 90.7811 109.795 91.4231C110.265 92.1158 110.501 92.9406 110.47 93.7771C110.521 94.9225 110.151 96.0469 109.429 96.9377C108.614 97.8443 107.596 98.5449 106.458 98.9823L113.178 106.495ZM105.034 94.3023C105.045 93.9019 104.937 93.5071 104.725 93.1675C104.452 92.8134 104.075 92.5542 103.647 92.4266C103.246 92.2963 102.83 92.2206 102.41 92.2015C101.941 92.2015 101.388 92.2015 100.77 92.2015H98.8951V96.8908H100.498C101.196 96.8985 101.894 96.8609 102.588 96.7783C103.091 96.734 103.576 96.57 104.003 96.3C104.327 96.0959 104.599 95.8199 104.8 95.4934C104.976 95.1322 105.056 94.7318 105.034 94.3305V94.3023Z" fill="#231F20"/>
<path d="M134.237 97.735C134.29 98.984 134.066 100.229 133.579 101.381C133.093 102.532 132.357 103.562 131.425 104.394C129.551 106.038 126.995 106.86 123.759 106.86C120.522 106.86 117.97 106.038 116.102 104.394C115.226 103.518 114.531 102.477 114.057 101.332C113.583 100.188 113.339 98.9603 113.339 97.721C113.339 96.4816 113.583 95.2544 114.057 94.1094C114.531 92.9645 115.226 91.9242 116.102 91.048C117.976 89.4161 120.507 88.5908 123.759 88.5908C127.011 88.5908 129.551 89.4161 131.416 91.048C132.354 91.8825 133.093 92.9158 133.581 94.0726C134.069 95.2294 134.293 96.4806 134.237 97.735ZM127.32 102.171C127.828 101.636 128.212 100.996 128.445 100.295C128.704 99.4673 128.828 98.6026 128.81 97.735C128.833 96.8228 128.69 95.914 128.389 95.0527C128.152 94.3858 127.778 93.7758 127.292 93.2614C126.843 92.8031 126.294 92.4534 125.689 92.2391C124.475 91.8204 123.155 91.8204 121.941 92.2391C121.335 92.4538 120.785 92.7996 120.329 93.252C119.828 93.7672 119.449 94.3893 119.223 95.0715C118.66 96.8122 118.66 98.686 119.223 100.427C119.462 101.092 119.835 101.702 120.319 102.218C120.766 102.678 121.311 103.03 121.913 103.25C122.514 103.464 123.148 103.575 123.787 103.578C124.442 103.581 125.093 103.467 125.708 103.24C126.32 103.012 126.872 102.646 127.32 102.171Z" fill="#231F20"/>
<path fill-rule="evenodd" clip-rule="evenodd" d="M17.2822 100.511C17.2749 101.374 17.0361 102.219 16.591 102.958C16.1459 103.697 15.5107 104.303 14.7518 104.713C12.6633 105.898 10.2797 106.461 7.88198 106.335C6.41175 106.362 4.94251 106.242 3.49581 105.979C2.30916 105.752 1.14074 105.439 0 105.041L0 100.849H0.571701C1.68079 101.606 2.90143 102.185 4.18935 102.565C5.43477 102.949 6.72892 103.151 8.03193 103.165C8.35058 103.165 8.76296 103.165 9.2878 103.09C9.71403 103.06 10.1354 102.982 10.5437 102.856C10.9067 102.707 11.24 102.494 11.5277 102.227C11.6589 102.11 11.7617 101.965 11.8283 101.803C11.8949 101.64 11.9235 101.465 11.912 101.289C11.9064 101.089 11.8524 100.893 11.7544 100.718C11.6565 100.543 11.5176 100.395 11.3497 100.286C10.8493 99.9624 10.2879 99.7454 9.70017 99.6481C8.94103 99.498 8.13503 99.348 7.29153 99.2073C6.4845 99.0835 5.68623 98.9081 4.90163 98.6821C3.52595 98.3818 2.25866 97.7104 1.23712 96.7407C0.482458 95.9047 0.079548 94.8094 0.112466 93.6833C0.131683 92.8501 0.377416 92.0379 0.823258 91.3339C1.2691 90.63 1.8982 90.061 2.64295 89.6879C4.64396 88.573 6.9155 88.0372 9.20345 88.1405C10.5254 88.1414 11.8451 88.2512 13.1491 88.4687C14.2956 88.6542 15.4243 88.9366 16.5231 89.3128V93.3456H15.9327C15.01 92.7333 14.0027 92.2593 12.9429 91.9388C11.7736 91.5634 10.5534 91.3704 9.32529 91.3667C8.88967 91.3665 8.45451 91.3947 8.02256 91.4511C7.60057 91.4959 7.18533 91.5904 6.78544 91.7325C6.43803 91.8407 6.11825 92.0231 5.84822 92.2671C5.72959 92.3677 5.63389 92.4926 5.56761 92.6333C5.50132 92.7741 5.46597 92.9274 5.46396 93.083C5.45963 93.2997 5.51397 93.5134 5.62122 93.7017C5.72847 93.8899 5.88464 94.0456 6.07315 94.1522C6.80241 94.4945 7.58007 94.7223 8.3787 94.8275L10.5249 95.212C11.2091 95.3339 11.9401 95.5121 12.7274 95.7278C14.0146 96.0212 15.2033 96.645 16.1763 97.5379C16.5528 97.9323 16.8451 98.3993 17.0352 98.9104C17.2254 99.4216 17.3094 99.9662 17.2822 100.511Z" fill="url(#paint6_linear_315_10)"/>
<path fill-rule="evenodd" clip-rule="evenodd" d="M37.5543 99.6765C37.6058 100.63 37.4246 101.582 37.0261 102.449C36.6277 103.317 36.0241 104.075 35.2675 104.657C33.7492 105.807 31.5124 106.382 28.557 106.382C25.6017 106.382 23.3617 105.807 21.8372 104.657C21.086 104.073 20.4873 103.316 20.0923 102.45C19.6973 101.585 19.5178 100.636 19.5691 99.6859V88.4878H24.7988V99.4139C24.7222 100.401 25.0389 101.379 25.6798 102.134C26.0741 102.472 26.5312 102.729 27.025 102.89C27.5187 103.051 28.0394 103.112 28.557 103.072C29.5848 103.158 30.6069 102.849 31.4155 102.209C31.7509 101.839 32.0071 101.404 32.1683 100.932C32.3295 100.459 32.3923 99.9586 32.3528 99.4608V88.4878H37.5918L37.5543 99.6765Z" fill="url(#paint7_linear_315_10)"/>
<path fill-rule="evenodd" clip-rule="evenodd" d="M59.8038 106.026H54.7709L46.1954 93.9931V106.026H41.4062V88.4878H47.6481L55.0146 98.5323V88.4878H59.8038V106.026Z" fill="url(#paint8_linear_315_10)"/>
<path fill-rule="evenodd" clip-rule="evenodd" d="M90.1416 94.0212C90.1427 94.814 89.9833 95.5989 89.673 96.3284C89.3697 97.0496 88.9048 97.6914 88.314 98.2041C87.5195 98.8896 86.6041 99.4208 85.6149 99.7703C84.4218 100.15 83.1737 100.327 81.9222 100.296H78.7263V106.017H73.4404V88.4878H82.0347C83.1258 88.473 84.2156 88.5704 85.2868 88.7785C86.1063 88.9482 86.8959 89.239 87.6299 89.6414C88.3965 90.0653 89.0419 90.6788 89.5043 91.4233C89.9504 92.2146 90.1709 93.1132 90.1416 94.0212ZM84.7151 94.1337C84.7287 93.663 84.5647 93.2043 84.2559 92.8489C83.9756 92.5093 83.6101 92.2503 83.1968 92.0986C82.6872 91.9173 82.1533 91.813 81.6129 91.7891C81.1068 91.7891 80.4227 91.7891 79.5698 91.7891H78.7263V97.0224H80.2071C80.9345 97.0328 81.6615 96.9858 82.3815 96.8817C82.8996 96.8083 83.3936 96.6157 83.8248 96.319C84.1439 96.0778 84.3903 95.7533 84.5371 95.3811C84.6787 94.9813 84.7393 94.5573 84.7151 94.1337Z" fill="url(#paint9_linear_315_10)"/>
<path fill-rule="evenodd" clip-rule="evenodd" d="M104.096 93.8431C104.132 93.418 104.013 92.9943 103.762 92.6498C103.511 92.3052 103.143 92.0629 102.728 91.9674C102.336 91.8285 101.925 91.7494 101.51 91.7329C101.05 91.7329 100.507 91.7329 99.8883 91.7329H98.0138V96.4222H99.5884C100.277 96.4278 100.966 96.3933 101.65 96.3191C102.146 96.2663 102.623 96.1028 103.047 95.8408C103.389 95.6437 103.668 95.3527 103.851 95.002C104.034 94.6514 104.112 94.2558 104.078 93.8619L104.096 93.8431ZM112.278 106.035H105.905L100.404 99.5922H98.0326V106.035H92.7842V88.4879H101.528C102.559 88.4807 103.589 88.5402 104.612 88.6661C105.456 88.7807 106.274 89.0409 107.03 89.4351C107.752 89.7961 108.378 90.3232 108.857 90.9732C109.324 91.6633 109.558 92.4852 109.523 93.3179C109.579 94.4653 109.212 95.5932 108.492 96.4879C107.672 97.3712 106.658 98.0519 105.53 98.4762L112.278 106.035Z" fill="url(#paint10_linear_315_10)"/>
<path fill-rule="evenodd" clip-rule="evenodd" d="M133.207 97.257C133.26 98.506 133.035 99.7513 132.549 100.903C132.063 102.054 131.327 103.084 130.395 103.916C128.521 105.56 125.962 106.382 122.719 106.382C119.476 106.382 116.924 105.56 115.062 103.916C114.182 103.044 113.484 102.006 113.007 100.862C112.531 99.7184 112.285 98.4915 112.285 97.2523C112.285 96.0131 112.531 94.7861 113.007 93.6424C113.484 92.4987 114.182 91.4608 115.062 90.5887C116.943 88.9694 119.514 88.1597 122.775 88.1597C126.037 88.1597 128.589 88.9787 130.432 90.6169C131.366 91.4502 132.102 92.4808 132.589 93.6341C133.075 94.7874 133.299 96.0345 133.244 97.2851L133.207 97.257ZM126.281 101.702C126.787 101.165 127.174 100.525 127.415 99.8267C127.673 98.9953 127.797 98.1276 127.78 97.257C127.803 96.3447 127.66 95.436 127.358 94.5747C127.118 93.9072 126.741 93.2972 126.253 92.7833C125.805 92.3198 125.257 91.9666 124.65 91.7517C124.048 91.5375 123.414 91.4296 122.775 91.4328C122.138 91.4289 121.504 91.5335 120.901 91.7423C120.295 91.9558 119.744 92.3019 119.289 92.7552C118.791 93.273 118.414 93.8942 118.183 94.5747C117.884 95.4367 117.738 96.3445 117.752 97.257C117.731 98.1653 117.87 99.0702 118.164 99.9299C118.406 100.597 118.779 101.21 119.261 101.731C119.711 102.184 120.254 102.533 120.854 102.753C121.471 102.972 122.121 103.083 122.775 103.081C123.415 103.08 124.05 102.966 124.65 102.743C125.267 102.528 125.825 102.172 126.281 101.702Z" fill="url(#paint11_linear_315_10)"/>
<path d="M15.933 117.43C15.9257 117.755 15.849 118.075 15.7081 118.368C15.5553 118.679 15.3381 118.954 15.0708 119.175C14.7576 119.424 14.402 119.615 14.0211 119.737C13.5537 119.881 13.0667 119.951 12.5778 119.944C12.0295 119.95 11.4823 119.893 10.947 119.775C10.4414 119.654 9.94859 119.484 9.47559 119.268V117.871H9.55994C9.99147 118.233 10.4876 118.51 11.022 118.687C11.5233 118.872 12.0527 118.971 12.5871 118.978C13.1504 119.009 13.7105 118.875 14.1991 118.593C14.3765 118.484 14.5225 118.331 14.6227 118.148C14.7229 117.966 14.774 117.76 14.7709 117.552C14.7845 117.405 14.7673 117.256 14.7206 117.116C14.6738 116.975 14.5983 116.846 14.4991 116.736C14.2649 116.529 13.9805 116.387 13.6743 116.323C13.366 116.242 13.053 116.18 12.7371 116.136C12.4091 116.089 12.0623 116.023 11.6968 115.948C11.0764 115.858 10.4997 115.576 10.0473 115.142C9.85066 114.912 9.70309 114.645 9.61367 114.356C9.52426 114.067 9.49489 113.763 9.52738 113.463C9.55987 113.162 9.65353 112.872 9.80259 112.609C9.95164 112.346 10.1529 112.116 10.3941 111.934C11.0518 111.466 11.846 111.228 12.6527 111.259C13.1978 111.255 13.7417 111.311 14.2741 111.428C14.7191 111.529 15.1548 111.667 15.5769 111.84V113.163H15.5581C15.1827 112.86 14.7534 112.631 14.2929 112.488C13.7802 112.312 13.2416 112.223 12.6996 112.225C12.1959 112.202 11.6968 112.329 11.2657 112.591C11.1046 112.69 10.9707 112.828 10.8758 112.991C10.781 113.155 10.7281 113.34 10.7221 113.529C10.7065 113.828 10.8035 114.122 10.9939 114.354C11.2558 114.592 11.5816 114.749 11.9311 114.804C12.1748 114.86 12.5122 114.926 12.962 115.001C13.4119 115.076 13.7774 115.151 14.0867 115.226C14.6151 115.343 15.1015 115.602 15.4925 115.976C15.658 116.178 15.7821 116.41 15.8577 116.659C15.9333 116.909 15.9589 117.171 15.933 117.43Z" fill="white"/>
<path d="M38.6883 116.464C38.6989 117 38.6294 117.534 38.4821 118.049C38.3719 118.456 38.1627 118.829 37.8732 119.135C37.5837 119.441 37.223 119.671 36.8233 119.803C36.3869 119.941 35.9312 120.007 35.4737 120C35.006 120.011 34.5401 119.941 34.096 119.794C33.7264 119.663 33.3903 119.451 33.1119 119.175C32.8085 118.863 32.5836 118.484 32.4558 118.068C32.3141 117.546 32.2478 117.006 32.259 116.464V111.447H33.3743V116.521C33.3641 116.879 33.3955 117.238 33.468 117.59C33.5203 117.846 33.6256 118.089 33.7773 118.303C33.9429 118.549 34.1776 118.742 34.4521 118.856C34.7762 118.988 35.1239 119.052 35.4737 119.043C35.8227 119.054 36.1702 118.993 36.4952 118.865C36.7707 118.748 37.0054 118.553 37.17 118.303C37.3175 118.08 37.4224 117.832 37.4793 117.571C37.5492 117.235 37.5807 116.892 37.573 116.549V111.447H38.6883V116.464Z" fill="white"/>
<path d="M60.9192 113.979C60.9219 114.332 60.8583 114.682 60.7318 115.011C60.6042 115.318 60.4198 115.598 60.1882 115.836C59.9006 116.126 59.5514 116.347 59.1666 116.483C58.6874 116.647 58.1827 116.723 57.6765 116.708H56.5518V119.822H55.4365V111.447H57.7046C58.1362 111.441 58.567 111.485 58.9886 111.578C59.3214 111.654 59.6385 111.787 59.9258 111.972C60.2321 112.172 60.4834 112.447 60.6568 112.769C60.846 113.143 60.9364 113.56 60.9192 113.979ZM59.7665 113.979C59.7685 113.721 59.7175 113.466 59.6165 113.229C59.5131 113.013 59.3506 112.831 59.1479 112.704C58.9595 112.587 58.7539 112.502 58.5387 112.45C58.2482 112.397 57.9531 112.372 57.6577 112.375H56.5518V115.723H57.489C57.8584 115.735 58.2276 115.693 58.5856 115.602C58.8439 115.537 59.0801 115.404 59.2697 115.217C59.4335 115.058 59.5613 114.867 59.6446 114.654C59.7189 114.447 59.757 114.228 59.7571 114.007L59.7665 113.979Z" fill="white"/>
<path d="M82.4747 113.979C82.4782 114.333 82.4113 114.683 82.2779 115.011C82.1537 115.319 81.9689 115.6 81.7343 115.836C81.4467 116.126 81.0975 116.347 80.7127 116.483C80.2335 116.647 79.7288 116.723 79.2226 116.708H78.1167V119.822H77.0107V111.447H79.2788C79.7241 111.446 80.1679 111.5 80.6003 111.606C80.9331 111.682 81.2502 111.816 81.5375 112C81.8443 112.203 82.0982 112.476 82.2779 112.797C82.4356 113.17 82.5031 113.575 82.4747 113.979ZM81.3126 113.979C81.3203 113.721 81.269 113.464 81.1626 113.229C81.0626 113.014 80.9033 112.831 80.7034 112.704C80.5125 112.586 80.3035 112.5 80.0848 112.45C79.7975 112.397 79.5055 112.371 79.2132 112.375H78.1167V115.723H79.0539C79.4202 115.734 79.7862 115.693 80.141 115.602C80.4022 115.537 80.6415 115.404 80.8346 115.217C80.9956 115.058 81.1203 114.866 81.2001 114.654C81.2776 114.447 81.3188 114.228 81.3219 114.007L81.3126 113.979Z" fill="white"/>
<path d="M103.871 119.822H98.5762V111.447H99.6915V118.837H103.871V119.822Z" fill="white"/>
<path d="M124.65 111.447L121.697 116.136V119.803H120.582V116.296L117.63 111.475H118.858L121.144 115.226L123.459 111.475L124.65 111.447Z" fill="white"/>
<defs>
<linearGradient id="paint0_linear_315_10" x1="42.6338" y1="42.8981" x2="93.0841" y2="42.8981" gradientUnits="userSpaceOnUse">
<stop stop-color="#3CC4F2"/>
<stop offset="0.15" stop-color="#3CBBEC"/>
<stop offset="0.39" stop-color="#3BA3DB"/>
<stop offset="0.7" stop-color="#3B7BC1"/>
<stop offset="1" stop-color="#3A4EA2"/>
</linearGradient>
<linearGradient id="paint1_linear_315_10" x1="63.1681" y1="34.3637" x2="79.0632" y2="34.3637" gradientUnits="userSpaceOnUse">
<stop stop-color="#00AEEF"/>
<stop offset="1" stop-color="#3A4EA2"/>
</linearGradient>
<linearGradient id="paint2_linear_315_10" x1="68.6413" y1="21.8334" x2="84.5365" y2="21.8334" gradientUnits="userSpaceOnUse">
<stop stop-color="#00AEEF"/>
<stop offset="1" stop-color="#3A4EA2"/>
</linearGradient>
<linearGradient id="paint3_linear_315_10" x1="64.115" y1="39.1558" x2="69.7664" y2="39.1558" gradientUnits="userSpaceOnUse">
<stop stop-color="#00AEEF"/>
<stop offset="1" stop-color="#3A4EA2"/>
</linearGradient>
<linearGradient id="paint4_linear_315_10" x1="70.3945" y1="27.2732" x2="74.5745" y2="27.2732" gradientUnits="userSpaceOnUse">
<stop stop-color="#00AEEF"/>
<stop offset="1" stop-color="#3A4EA2"/>
</linearGradient>
<linearGradient id="paint5_linear_315_10" x1="108.97" y1="42.898" x2="24.2363" y2="42.898" gradientUnits="userSpaceOnUse">
<stop stop-color="#3CC4F2"/>
<stop offset="0.15" stop-color="#3CBBEC"/>
<stop offset="0.39" stop-color="#3BA3DB"/>
<stop offset="0.7" stop-color="#3B7BC1"/>
<stop offset="1" stop-color="#3A4EA2"/>
</linearGradient>
<linearGradient id="paint6_linear_315_10" x1="-1.95878" y1="97.2565" x2="161.407" y2="97.2565" gradientUnits="userSpaceOnUse">
<stop stop-color="#3CC4F2"/>
<stop offset="0.15" stop-color="#3CBBEC"/>
<stop offset="0.39" stop-color="#3BA3DB"/>
<stop offset="0.7" stop-color="#3B7BC1"/>
<stop offset="1" stop-color="#3A4EA2"/>
</linearGradient>
<linearGradient id="paint7_linear_315_10" x1="9.07563e-05" y1="97.435" x2="133.206" y2="97.435" gradientUnits="userSpaceOnUse">
<stop stop-color="#3CC4F2"/>
<stop offset="0.15" stop-color="#3CBBEC"/>
<stop offset="0.39" stop-color="#3BA3DB"/>
<stop offset="0.7" stop-color="#3B7BC1"/>
<stop offset="1" stop-color="#3A4EA2"/>
</linearGradient>
<linearGradient id="paint8_linear_315_10" x1="9.23489e-05" y1="97.2568" x2="133.206" y2="97.2568" gradientUnits="userSpaceOnUse">
<stop stop-color="#3CC4F2"/>
<stop offset="0.15" stop-color="#3CBBEC"/>
<stop offset="0.39" stop-color="#3BA3DB"/>
<stop offset="0.7" stop-color="#3B7BC1"/>
<stop offset="1" stop-color="#3A4EA2"/>
</linearGradient>
<linearGradient id="paint9_linear_315_10" x1="-5.10755" y1="97.2568" x2="136.412" y2="97.2568" gradientUnits="userSpaceOnUse">
<stop stop-color="#3CC4F2"/>
<stop offset="0.15" stop-color="#3CBBEC"/>
<stop offset="0.39" stop-color="#3BA3DB"/>
<stop offset="0.7" stop-color="#3B7BC1"/>
<stop offset="1" stop-color="#3A4EA2"/>
</linearGradient>
<linearGradient id="paint10_linear_315_10" x1="-31.7436" y1="97.2569" x2="142.7" y2="97.2569" gradientUnits="userSpaceOnUse">
<stop stop-color="#3CC4F2"/>
<stop offset="0.15" stop-color="#3CBBEC"/>
<stop offset="0.39" stop-color="#3BA3DB"/>
<stop offset="0.7" stop-color="#3B7BC1"/>
<stop offset="1" stop-color="#3A4EA2"/>
</linearGradient>
<linearGradient id="paint11_linear_315_10" x1="0.000257159" y1="97.257" x2="133.207" y2="97.257" gradientUnits="userSpaceOnUse">
<stop stop-color="#3CC4F2"/>
<stop offset="0.15" stop-color="#3CBBEC"/>
<stop offset="0.39" stop-color="#3BA3DB"/>
<stop offset="0.7" stop-color="#3B7BC1"/>
<stop offset="1" stop-color="#3A4EA2"/>
</linearGradient>
</defs>
</svg>
