<svg width="101" height="90" viewBox="0 0 101 90" fill="none" xmlns="http://www.w3.org/2000/svg">
<path fill-rule="evenodd" clip-rule="evenodd" d="M32.1313 31.2522C32.1313 31.2522 42.8441 11.1772 49.9414 4.50195C49.9414 4.50195 40.4033 22.9873 44.0962 32.4058C47.789 41.8243 56.4971 41.1983 56.4971 41.1983C56.4971 41.1983 57.9039 39.6719 56.9684 38.1385C56.0329 36.6051 54.3377 37.5125 53.9086 36.1338C53.6286 35.0595 53.4961 33.952 53.5147 32.8419C53.5147 32.8419 53.7679 29.8595 55.3013 30.1127C55.787 30.2157 56.2473 30.4142 56.6555 30.6968C57.0637 30.9794 57.4115 31.3404 57.6788 31.7587L59.9016 36.577C60.0433 34.4452 59.6718 32.3105 58.8183 30.3519C57.4115 27.1725 58.1149 25.4844 58.1149 25.4844C58.1149 25.4844 59.1208 20.6801 62.1806 20.4832L67.8078 31.3789C69.4959 34.4668 70.2134 35.1702 70.2978 38.8068C70.7832 60.0987 41.9227 69.0529 31.2451 47.2476C31.2451 47.2616 27.1653 40.2769 32.1313 31.2522Z" fill="url(#paint0_linear_131_554)"/>
<path fill-rule="evenodd" clip-rule="evenodd" d="M56.7152 28.1924C56.7152 28.1924 54.4433 26.0822 52.5581 25.8712C52.5581 25.8712 49.9696 25.0904 49.8501 24.3026C49.7305 23.5148 51.4186 23.3601 51.4186 23.3601C51.4186 23.3601 56.5183 23.2475 56.7152 28.1924Z" fill="url(#paint1_linear_131_554)"/>
<path fill-rule="evenodd" clip-rule="evenodd" d="M60.8229 18.788C60.8229 18.788 58.5438 16.6778 56.6587 16.4738C56.6587 16.4738 54.0702 15.686 53.9506 14.9052C53.8311 14.1244 55.5192 13.9627 55.5192 13.9627C55.5192 13.9627 60.6259 13.8431 60.8229 18.788Z" fill="url(#paint2_linear_131_554)"/>
<path fill-rule="evenodd" clip-rule="evenodd" d="M50.2437 31.4841C50.6611 31.4841 51.0691 31.3603 51.4161 31.1284C51.7631 30.8966 52.0336 30.567 52.1933 30.1814C52.353 29.7958 52.3948 29.3715 52.3134 28.9622C52.232 28.5529 52.031 28.1769 51.7359 27.8817C51.4408 27.5866 51.0648 27.3856 50.6554 27.3042C50.2461 27.2228 49.8218 27.2646 49.4362 27.4243C49.0506 27.584 48.7211 27.8545 48.4892 28.2015C48.2573 28.5485 48.1335 28.9565 48.1335 29.3739C48.1335 29.9335 48.3559 30.4703 48.7516 30.866C49.1473 31.2617 49.6841 31.4841 50.2437 31.4841Z" fill="url(#paint3_linear_131_554)"/>
<path fill-rule="evenodd" clip-rule="evenodd" d="M54.4009 22.0306C54.7128 22.032 55.0181 21.9408 55.2781 21.7685C55.5382 21.5962 55.7412 21.3506 55.8615 21.0628C55.9819 20.7751 56.0141 20.458 55.9541 20.1519C55.8941 19.8458 55.7446 19.5644 55.5245 19.3434C55.3044 19.1223 55.0237 18.9716 54.7179 18.9102C54.412 18.8488 54.0949 18.8796 53.8066 18.9987C53.5182 19.1177 53.2718 19.3196 53.0983 19.5789C52.9249 19.8382 52.8323 20.1431 52.8323 20.455C52.8323 20.8717 52.9973 21.2714 53.2913 21.5666C53.5852 21.8619 53.9842 22.0288 54.4009 22.0306Z" fill="url(#paint4_linear_131_554)"/>
<path fill-rule="evenodd" clip-rule="evenodd" d="M49.9836 0C42.3041 0.000199837 34.878 2.74726 29.0471 7.7448C23.2162 12.7423 19.3652 19.6607 18.1899 27.2497H21.0035C22.17 20.413 25.7174 14.2092 31.018 9.73645C36.3185 5.26366 43.0305 2.81016 49.966 2.81016C56.9016 2.81016 63.6135 5.26366 68.9141 9.73645C74.2146 14.2092 77.762 20.413 78.9285 27.2497H81.7421C80.5664 19.6673 76.7201 12.7544 70.8969 7.75792C65.0736 2.76139 57.6566 0.0100238 49.9836 0V0ZM18.1899 37.0973C19.3713 44.6824 23.2252 51.5953 29.0561 56.5883C34.8869 61.5813 42.3106 64.3255 49.9871 64.3255C57.6637 64.3255 65.0873 61.5813 70.9182 56.5883C76.749 51.5953 80.6029 44.6824 81.7843 37.0973H78.9707C77.8042 43.9341 74.2569 50.1378 68.9563 54.6106C63.6557 59.0834 56.9438 61.5368 50.0082 61.5368C43.0727 61.5368 36.3607 59.0834 31.0602 54.6106C25.7596 50.1378 22.2122 43.9341 21.0457 37.0973H18.1899Z" fill="url(#paint5_linear_131_554)"/>
<path d="M13.3646 75.7351C13.3582 76.3838 13.1779 77.019 12.8427 77.5744C12.5074 78.1299 12.0294 78.5853 11.4584 78.8933C9.88755 79.7801 8.09701 80.2021 6.29547 80.1102C5.19133 80.1231 4.08863 80.0265 3.00356 79.8218C2.11295 79.6519 1.23603 79.4168 0.379883 79.1184V75.9672H0.808957C1.63859 76.5289 2.55288 76.9539 3.51705 77.2263C4.4535 77.5169 5.42753 77.6686 6.40802 77.6764C6.64717 77.6764 6.9637 77.6764 7.35057 77.6272C7.6724 77.6021 7.99068 77.5431 8.30016 77.4514C8.56757 77.3612 8.81742 77.2255 9.03873 77.0504C9.13719 76.9629 9.21435 76.854 9.26433 76.7321C9.31431 76.6102 9.33579 76.4785 9.32713 76.347C9.32363 76.1976 9.28328 76.0513 9.20965 75.9213C9.13602 75.7912 9.0314 75.6813 8.90509 75.6014C8.53165 75.3534 8.10959 75.1879 7.6671 75.1161C7.09032 75.0035 6.49243 74.891 5.85233 74.7855C5.24895 74.6926 4.65217 74.5611 4.0657 74.3916C3.0292 74.166 2.07361 73.6627 1.30134 72.9355C0.74063 72.3056 0.441275 71.4855 0.464291 70.6424C0.478976 70.0167 0.663435 69.4067 0.997949 68.8777C1.33246 68.3487 1.80446 67.9205 2.36347 67.6389C3.86581 66.8041 5.57025 66.4024 7.28727 66.4783C8.2798 66.4779 9.27053 66.5626 10.2486 66.7315C11.109 66.8707 11.9561 67.0824 12.7808 67.3646V70.3892H12.3658C11.6703 69.9291 10.9123 69.5713 10.1149 69.3271C8.91325 68.9263 7.63873 68.7919 6.37988 68.9332C6.06134 68.9733 5.74782 69.0464 5.44436 69.1512C5.18441 69.2342 4.94477 69.3707 4.74096 69.5522C4.65302 69.6296 4.58248 69.7248 4.53399 69.8315C4.48549 69.9382 4.46014 70.054 4.4596 70.1712C4.45026 70.3374 4.48909 70.5028 4.57143 70.6476C4.65378 70.7923 4.77615 70.9102 4.92384 70.9871C5.46829 71.2514 6.05318 71.4226 6.65421 71.4936L8.26499 71.789C8.77848 71.8804 9.32713 72.0141 9.92502 72.1759C10.8848 72.3976 11.7714 72.8627 12.4995 73.5264C12.7857 73.8168 13.01 74.1623 13.1588 74.5419C13.3075 74.9216 13.3775 75.3275 13.3646 75.7351Z" fill="#231F20"/>
<path d="M28.6494 75.1088C28.6893 75.8241 28.5538 76.5384 28.2547 77.1893C27.9556 77.8403 27.5019 78.4083 26.9331 78.8439C25.7936 79.7067 24.1102 80.1405 21.8827 80.1452C19.6553 80.1499 17.9742 79.7161 16.8393 78.8439C16.2733 78.4078 15.822 77.8405 15.5242 77.191C15.2264 76.5415 15.0911 75.8293 15.1301 75.1159V66.7173H19.0691V74.926C19.0116 75.6665 19.2493 76.3998 19.7303 76.9658C20.0252 77.2189 20.3671 77.4112 20.7364 77.5319C21.1058 77.6526 21.4953 77.6993 21.8827 77.6692C22.6567 77.7387 23.4277 77.5069 24.0351 77.0221C24.2868 76.7448 24.4791 76.4189 24.6001 76.0644C24.7211 75.71 24.7682 75.3345 24.7385 74.9611V66.7173H28.6776L28.6494 75.1088Z" fill="#231F20"/>
<path d="M45.4467 79.8709H41.6695L35.2263 70.8462V79.8709H31.6531V66.7173H36.3377L41.8735 74.2507V66.7173H45.4678L45.4467 79.8709Z" fill="#231F20"/>
<path d="M68.2298 70.8677C68.229 71.4628 68.1069 72.0516 67.8711 72.598C67.6453 73.14 67.296 73.6217 66.8511 74.0048C66.2561 74.5207 65.5687 74.9193 64.8253 75.1795C63.9175 75.4741 62.9657 75.6097 62.0117 75.5804H59.5991V79.8642H55.6812V66.7176H62.1243C62.9457 66.7031 63.7662 66.7762 64.5721 66.9357C65.1877 67.061 65.7806 67.2792 66.3306 67.5828C66.9081 67.8979 67.3931 68.3587 67.7374 68.9193C68.0768 69.5114 68.2471 70.1854 68.2298 70.8677ZM64.1782 70.945C64.1866 70.5944 64.0637 70.2532 63.8336 69.9884C63.6191 69.7335 63.3395 69.5414 63.0246 69.4327C62.6424 69.2947 62.2418 69.2141 61.8359 69.1936C61.449 69.1936 60.9285 69.1936 60.2814 69.1936H59.578V73.1256H60.6964C61.247 73.1336 61.7973 73.0983 62.3423 73.0201C62.7337 72.9664 63.1071 72.8218 63.4326 72.598C63.6739 72.4173 63.8612 72.1741 63.9742 71.8946C64.1014 71.5943 64.1661 71.2712 64.1642 70.945H64.1782Z" fill="#231F20"/>
<path d="M84.9427 79.871H80.1877L76.0587 75.0456H74.2088V79.871H70.3401V66.7174H76.9098C77.6834 66.7087 78.4566 66.7533 79.224 66.851C79.8577 66.937 80.4717 67.1322 81.0388 67.4278C81.5767 67.6955 82.0441 68.0858 82.4034 68.5673C82.756 69.0869 82.9334 69.7054 82.9098 70.3328C82.9481 71.1919 82.6704 72.0352 82.1291 72.7033C81.5172 73.3832 80.7531 73.9087 79.8993 74.2367L84.9427 79.871ZM78.8301 70.7268C78.8382 70.4264 78.7575 70.1303 78.598 69.8756C78.3934 69.6101 78.1104 69.4157 77.7891 69.32C77.4886 69.2222 77.1763 69.1654 76.8606 69.1511C76.5089 69.1511 76.0939 69.1511 75.6297 69.1511H74.2229V72.6681H75.4257C75.9498 72.6739 76.4738 72.6457 76.9942 72.5837C77.3718 72.5505 77.736 72.4275 78.0564 72.225C78.2995 72.0719 78.5041 71.8649 78.6543 71.6201C78.7864 71.3491 78.8469 71.0488 78.8301 70.7479V70.7268Z" fill="#231F20"/>
<path d="M100.748 73.3015C100.788 74.2383 100.619 75.1722 100.254 76.0359C99.8895 76.8996 99.3373 77.6714 98.6377 78.2956C97.2309 79.5289 95.313 80.1456 92.8839 80.1456C90.4548 80.1456 88.5392 79.5289 87.1371 78.2956C86.4797 77.6385 85.9582 76.8583 85.6024 75.9996C85.2466 75.1409 85.0635 74.2205 85.0635 73.291C85.0635 72.3614 85.2466 71.441 85.6024 70.5823C85.9582 69.7236 86.4797 68.9434 87.1371 68.2863C88.5439 67.0624 90.4431 66.4434 92.8839 66.4434C95.3247 66.4434 97.2309 67.0624 98.6307 68.2863C99.3344 68.9121 99.8896 69.6871 100.256 70.5547C100.622 71.4223 100.79 72.3607 100.748 73.3015ZM95.5568 76.6286C95.9382 76.2274 96.2264 75.7471 96.4009 75.2218C96.5955 74.6007 96.6882 73.9522 96.6752 73.3015C96.692 72.6173 96.5847 71.9358 96.3587 71.2898C96.1807 70.7896 95.9004 70.3321 95.5357 69.9463C95.1983 69.6025 94.7869 69.3403 94.3329 69.1796C93.4213 68.8655 92.4309 68.8655 91.5193 69.1796C91.065 69.3406 90.6518 69.6 90.3094 69.9393C89.9334 70.3257 89.6496 70.7922 89.4794 71.3039C89.0573 72.6094 89.0573 74.0147 89.4794 75.3203C89.6592 75.8195 89.9393 76.2768 90.3024 76.6638C90.6377 77.0084 91.0464 77.2729 91.4982 77.4375C91.95 77.598 92.4256 77.6812 92.905 77.6837C93.3969 77.686 93.8853 77.6002 94.347 77.4305C94.8062 77.2591 95.2201 76.9848 95.5568 76.6286Z" fill="#231F20"/>
<path fill-rule="evenodd" clip-rule="evenodd" d="M12.9707 75.3834C12.9651 76.0306 12.786 76.6644 12.4519 77.2187C12.1179 77.773 11.6411 78.2275 11.0715 78.5347C9.50411 79.4238 7.71512 79.846 5.91559 79.7515C4.81215 79.7715 3.70946 79.6819 2.62368 79.4843C1.73307 79.3144 0.856149 79.0793 0 78.7809L0 75.6367H0.429074C1.26147 76.2047 2.17758 76.639 3.1442 76.9239C4.07891 77.2116 5.05019 77.3632 6.02814 77.3741C6.26729 77.3741 6.57679 77.3741 6.97069 77.3178C7.29058 77.2955 7.60685 77.2365 7.91325 77.1419C8.1857 77.0304 8.43588 76.8708 8.65182 76.6707C8.75027 76.5831 8.82743 76.4742 8.87741 76.3523C8.92739 76.2304 8.94887 76.0987 8.94021 75.9673C8.93603 75.817 8.89545 75.67 8.82193 75.5389C8.74842 75.4078 8.64418 75.2965 8.51817 75.2146C8.14262 74.9721 7.72125 74.8093 7.28019 74.7363C6.71043 74.6238 6.10551 74.5112 5.47245 74.4057C4.86676 74.3129 4.26764 74.1813 3.67878 74.0118C2.6463 73.7866 1.69517 73.283 0.928488 72.5558C0.362095 71.9288 0.0597024 71.1073 0.084408 70.2627C0.0988311 69.6378 0.283259 69.0287 0.617873 68.5007C0.952487 67.9728 1.42464 67.546 1.98359 67.2662C3.48539 66.43 5.19023 66.0282 6.90738 66.1056C7.89957 66.1063 8.89001 66.1887 9.8687 66.3518C10.7291 66.4909 11.5762 66.7027 12.4009 66.9848V70.0095H11.9578C11.2653 69.5502 10.5094 69.1947 9.71395 68.9544C8.83631 68.6728 7.92053 68.5281 6.99883 68.5253C6.67189 68.5251 6.34529 68.5463 6.0211 68.5886C5.70439 68.6222 5.39274 68.693 5.09261 68.7996C4.83188 68.8807 4.59187 69.0175 4.38921 69.2006C4.30018 69.276 4.22836 69.3697 4.17861 69.4752C4.12886 69.5808 4.10233 69.6958 4.10082 69.8125C4.09757 69.975 4.13835 70.1353 4.21885 70.2765C4.29934 70.4177 4.41655 70.5344 4.55803 70.6144C5.10536 70.8711 5.689 71.042 6.28839 71.1208L7.89918 71.4092C8.41266 71.5007 8.96131 71.6343 9.55217 71.7961C10.5183 72.0161 11.4104 72.484 12.1407 73.1537C12.4233 73.4494 12.6426 73.7997 12.7853 74.1831C12.928 74.5664 12.9911 74.9749 12.9707 75.3834Z" fill="url(#paint6_linear_131_554)"/>
<path fill-rule="evenodd" clip-rule="evenodd" d="M28.1851 74.7573C28.2238 75.4724 28.0877 76.1862 27.7887 76.837C27.4897 77.4878 27.0367 78.0559 26.4688 78.4923C25.3293 79.3552 23.6505 79.7866 21.4325 79.7866C19.2144 79.7866 17.5333 79.3552 16.3891 78.4923C15.8253 78.0547 15.3759 77.4869 15.0795 76.8377C14.783 76.1884 14.6483 75.477 14.6869 74.7643V66.3657H18.6118V74.5603C18.5543 75.3009 18.792 76.0342 19.273 76.6002C19.569 76.8538 19.9121 77.0464 20.2826 77.1671C20.6532 77.2878 21.044 77.3342 21.4325 77.3036C22.2038 77.3684 22.9709 77.137 23.5778 76.6565C23.8296 76.3791 24.0218 76.0532 24.1428 75.6988C24.2638 75.3443 24.3109 74.9689 24.2812 74.5955V66.3657H28.2132L28.1851 74.7573Z" fill="url(#paint7_linear_131_554)"/>
<path fill-rule="evenodd" clip-rule="evenodd" d="M44.8839 79.5193H41.1067L34.6705 70.4947V79.5193H31.0762V66.3657H35.7608L41.2895 73.8991V66.3657H44.8839V79.5193Z" fill="url(#paint8_linear_131_554)"/>
<path fill-rule="evenodd" clip-rule="evenodd" d="M67.653 70.5159C67.6538 71.1105 67.5342 71.6991 67.3013 72.2463C67.0737 72.7872 66.7247 73.2685 66.2814 73.6531C65.685 74.1672 64.998 74.5656 64.2556 74.8277C63.3601 75.1124 62.4235 75.2455 61.4842 75.2216H59.0856V79.5124H55.1184V66.3658H61.5686C62.3875 66.3548 63.2054 66.4278 64.0094 66.5839C64.6244 66.7112 65.2171 66.9293 65.7679 67.231C66.3433 67.549 66.8276 68.0091 67.1747 68.5675C67.5095 69.1609 67.675 69.8349 67.653 70.5159ZM63.5803 70.6003C63.5905 70.2472 63.4674 69.9032 63.2356 69.6367C63.0252 69.382 62.7509 69.1878 62.4408 69.0739C62.0583 68.9379 61.6576 68.8597 61.2521 68.8418C60.8722 68.8418 60.3587 68.8418 59.7186 68.8418H59.0856V72.7668H60.197C60.7428 72.7746 61.2885 72.7394 61.8288 72.6613C62.2177 72.6063 62.5885 72.4618 62.9121 72.2392C63.1516 72.0584 63.3365 71.815 63.4467 71.5358C63.553 71.236 63.5984 70.9179 63.5803 70.6003Z" fill="url(#paint9_linear_131_554)"/>
<path fill-rule="evenodd" clip-rule="evenodd" d="M78.1265 70.3821C78.1533 70.0633 78.0641 69.7455 77.8755 69.4871C77.6869 69.2287 77.4114 69.047 77.0995 68.9753C76.8053 68.8711 76.497 68.8118 76.1851 68.7994C75.8405 68.7994 75.4325 68.7994 74.9682 68.7994H73.5614V72.3164H74.7432C75.26 72.3206 75.7767 72.2948 76.2906 72.2391C76.6624 72.1995 77.0206 72.0769 77.3387 71.8803C77.5958 71.7325 77.8053 71.5142 77.9424 71.2513C78.0795 70.9883 78.1385 70.6916 78.1124 70.3962L78.1265 70.3821ZM84.2672 79.5263H79.4841L75.3551 74.6939H73.5755V79.5263H69.6365V66.3657H76.1992C76.9727 66.3603 77.7457 66.4049 78.5134 66.4993C79.1471 66.5853 79.7611 66.7805 80.3281 67.0761C80.8701 67.3469 81.3401 67.7422 81.6998 68.2297C82.0502 68.7473 82.2253 69.3637 82.1992 69.9882C82.2412 70.8487 81.9659 71.6947 81.4255 72.3657C80.81 73.0282 80.0491 73.5387 79.2027 73.8569L84.2672 79.5263Z" fill="url(#paint10_linear_131_554)"/>
<path fill-rule="evenodd" clip-rule="evenodd" d="M99.9742 72.9426C100.014 73.8794 99.8458 74.8133 99.4808 75.677C99.1159 76.5407 98.5637 77.3125 97.864 77.9367C96.4572 79.17 94.537 79.7867 92.1032 79.7867C89.6694 79.7867 87.7538 79.17 86.3564 77.9367C85.6961 77.2827 85.1719 76.5043 84.8141 75.6465C84.4564 74.7887 84.2722 73.8685 84.2722 72.9391C84.2722 72.0097 84.4564 71.0895 84.8141 70.2317C85.1719 69.3739 85.6961 68.5955 86.3564 67.9414C87.7679 66.7269 89.6976 66.1196 92.1454 66.1196C94.5932 66.1196 96.5088 66.7339 97.8922 67.9625C98.5927 68.5875 99.1455 69.3605 99.5105 70.2255C99.8755 71.0905 100.043 72.0258 100.002 72.9637L99.9742 72.9426ZM94.7761 76.2767C95.1565 75.8735 95.4466 75.394 95.6272 74.8699C95.8214 74.2463 95.914 73.5956 95.9015 72.9426C95.9183 72.2584 95.8111 71.5769 95.585 70.9309C95.4046 70.4303 95.1219 69.9728 94.755 69.5874C94.4195 69.2397 94.0077 68.9748 93.5522 68.8137C93.1007 68.653 92.6246 68.5721 92.1454 68.5745C91.6667 68.5715 91.191 68.65 90.7386 68.8066C90.2839 68.9668 89.8705 69.2263 89.5287 69.5663C89.1551 69.9546 88.8717 70.4205 88.6987 70.9309C88.4742 71.5774 88.3647 72.2583 88.3752 72.9426C88.3592 73.6239 88.464 74.3026 88.6847 74.9473C88.8661 75.4479 89.1459 75.9071 89.5076 76.2978C89.8451 76.6381 90.2534 76.8998 90.7034 77.0645C91.1664 77.2287 91.6542 77.3119 92.1454 77.3107C92.6256 77.3098 93.1018 77.224 93.5522 77.0575C94.0154 76.896 94.4345 76.6287 94.7761 76.2767Z" fill="url(#paint11_linear_131_554)"/>
<path d="M11.9578 88.0727C11.9523 88.3166 11.8947 88.5564 11.7889 88.7761C11.6743 89.0095 11.5112 89.2157 11.3106 89.3811C11.0756 89.5681 10.8087 89.7111 10.5228 89.8031C10.172 89.9109 9.80652 89.9631 9.43958 89.9578C9.0281 89.9627 8.61743 89.9202 8.21567 89.8312C7.83616 89.7405 7.46633 89.6133 7.11133 89.4514V88.4033H7.17463C7.49851 88.6747 7.87083 88.8824 8.27194 89.0153C8.6482 89.1544 9.04549 89.2282 9.44662 89.2333C9.86934 89.2567 10.2897 89.1565 10.6565 88.945C10.7896 88.8632 10.8991 88.7482 10.9743 88.6114C11.0496 88.4745 11.0879 88.3204 11.0855 88.1642C11.0958 88.0536 11.0829 87.9421 11.0478 87.8368C11.0127 87.7314 10.9561 87.6345 10.8816 87.5522C10.7058 87.3968 10.4924 87.2901 10.2626 87.2427C10.0311 87.1817 9.79624 87.1348 9.55916 87.102C9.31297 87.0669 9.05271 87.0176 8.77839 86.9614C8.31278 86.8936 7.87996 86.6821 7.5404 86.3564C7.39283 86.1843 7.28208 85.9838 7.21497 85.7673C7.14786 85.5507 7.12581 85.3227 7.1502 85.0973C7.17458 84.8719 7.24488 84.6539 7.35675 84.4567C7.46862 84.2596 7.61969 84.0874 7.80066 83.9508C8.29429 83.5994 8.89036 83.4213 9.49585 83.4444C9.90493 83.441 10.3131 83.4835 10.7127 83.571C11.0467 83.6468 11.3737 83.7503 11.6905 83.8805V84.8723H11.6764C11.3946 84.6451 11.0724 84.4732 10.7268 84.3658C10.342 84.2339 9.93782 84.1673 9.53102 84.1689C9.15301 84.1515 8.77837 84.247 8.45482 84.4432C8.33396 84.5176 8.23343 84.6208 8.16223 84.7435C8.09104 84.8663 8.05139 85.0048 8.04685 85.1466C8.03516 85.3712 8.10793 85.592 8.25084 85.7656C8.44744 85.9442 8.69191 86.0615 8.95424 86.1032C9.13712 86.1454 9.39034 86.1947 9.72798 86.2509C10.0656 86.3072 10.3399 86.3635 10.5721 86.4197C10.9687 86.5071 11.3337 86.7017 11.6272 86.9825C11.7514 87.1335 11.8445 87.3075 11.9012 87.4946C11.958 87.6817 11.9772 87.8782 11.9578 88.0727Z" fill="#051D3A"/>
<path d="M29.0364 87.3481C29.0444 87.7499 28.9922 88.1506 28.8817 88.5369C28.799 88.8419 28.6419 89.1217 28.4247 89.3512C28.2074 89.5808 27.9367 89.7529 27.6367 89.8523C27.3092 89.9555 26.9671 90.0054 26.6238 90C26.2728 90.0078 25.9231 89.9555 25.5898 89.8452C25.3124 89.7468 25.0602 89.5882 24.8512 89.381C24.6235 89.1473 24.4547 88.8628 24.3588 88.551C24.2525 88.1591 24.2027 87.7541 24.2111 87.3481V83.585H25.0482V87.3904C25.0405 87.6595 25.0641 87.9286 25.1185 88.1922C25.1577 88.3847 25.2368 88.5668 25.3506 88.7268C25.4749 88.912 25.6511 89.0564 25.8571 89.1418C26.1003 89.2408 26.3613 89.2887 26.6238 89.2825C26.8857 89.2902 27.1466 89.2447 27.3905 89.1489C27.5972 89.0611 27.7734 88.9143 27.8969 88.7268C28.0076 88.5599 28.0863 88.3738 28.1291 88.1782C28.1815 87.9261 28.2051 87.6689 28.1994 87.4115V83.585H29.0364V87.3481Z" fill="#051D3A"/>
<path d="M45.7211 85.484C45.7231 85.7485 45.6754 86.0109 45.5804 86.2578C45.4847 86.488 45.3463 86.698 45.1724 86.8768C44.9566 87.094 44.6945 87.2599 44.4057 87.3621C44.0461 87.4849 43.6672 87.5421 43.2873 87.5309H42.4432V89.8662H41.6062V83.5848H43.3084C43.6324 83.5806 43.9557 83.6136 44.2721 83.6833C44.5219 83.7404 44.7599 83.8403 44.9755 83.9787C45.2054 84.1291 45.394 84.3347 45.5241 84.5766C45.6662 84.8573 45.734 85.1697 45.7211 85.484ZM44.8559 85.484C44.8575 85.2907 44.8191 85.0991 44.7434 84.9213C44.6657 84.7594 44.5438 84.6228 44.3917 84.5274C44.2503 84.4403 44.0959 84.3762 43.9345 84.3375C43.7164 84.2972 43.495 84.2784 43.2733 84.2812H42.4432V86.7923H43.1466C43.4239 86.8006 43.7009 86.7699 43.9696 86.7009C44.1635 86.6524 44.3408 86.5528 44.4831 86.4125C44.606 86.2936 44.7019 86.1496 44.7645 85.9905C44.8202 85.8347 44.8488 85.6705 44.8489 85.5051L44.8559 85.484Z" fill="#051D3A"/>
<path d="M61.8992 85.4841C61.9018 85.7493 61.8516 86.0123 61.7514 86.2579C61.6583 86.4894 61.5195 86.6999 61.3435 86.8769C61.1276 87.0942 60.8655 87.2601 60.5768 87.3622C60.2171 87.485 59.8383 87.5422 59.4584 87.531H58.6284V89.8663H57.7983V83.585H59.5006C59.8348 83.5845 60.1678 83.6246 60.4924 83.7045C60.7421 83.7616 60.9801 83.8616 61.1958 84C61.426 84.1521 61.6165 84.3571 61.7514 84.5979C61.8698 84.8775 61.9204 85.1812 61.8992 85.4841ZM61.0269 85.4841C61.0327 85.2904 60.9943 85.098 60.9144 84.9214C60.8393 84.76 60.7198 84.6234 60.5697 84.5275C60.4265 84.4392 60.2696 84.375 60.1055 84.3376C59.8898 84.2973 59.6707 84.2785 59.4513 84.2813H58.6284V86.7925H59.3318C59.6067 86.8004 59.8813 86.7696 60.1477 86.701C60.3437 86.6527 60.5233 86.5532 60.6682 86.4126C60.7891 86.2934 60.8827 86.1494 60.9425 85.9906C61.0007 85.8353 61.0316 85.6711 61.034 85.5052L61.0269 85.4841Z" fill="#051D3A"/>
<path d="M77.9579 89.8663H73.9836V83.585H74.8207V89.1277H77.9579V89.8663Z" fill="#051D3A"/>
<path d="M93.5522 83.585L91.3364 87.102V89.8523H90.4994V87.2215L88.2837 83.6061H89.2051L90.9214 86.4197L92.6588 83.6061L93.5522 83.585Z" fill="#051D3A"/>
<defs>
<linearGradient id="paint0_linear_131_554" x1="31.9977" y1="32.1737" x2="69.8617" y2="32.1737" gradientUnits="userSpaceOnUse">
<stop stop-color="#3CC4F2"/>
<stop offset="0.15" stop-color="#3CBBEC"/>
<stop offset="0.39" stop-color="#3BA3DB"/>
<stop offset="0.7" stop-color="#3B7BC1"/>
<stop offset="1" stop-color="#3A4EA2"/>
</linearGradient>
<linearGradient id="paint1_linear_131_554" x1="47.4093" y1="25.7727" x2="59.3389" y2="25.7727" gradientUnits="userSpaceOnUse">
<stop stop-color="#00AEEF"/>
<stop offset="1" stop-color="#3A4EA2"/>
</linearGradient>
<linearGradient id="paint2_linear_131_554" x1="51.5169" y1="16.3753" x2="63.4465" y2="16.3753" gradientUnits="userSpaceOnUse">
<stop stop-color="#00AEEF"/>
<stop offset="1" stop-color="#3A4EA2"/>
</linearGradient>
<linearGradient id="paint3_linear_131_554" x1="48.1195" y1="29.3668" x2="52.361" y2="29.3668" gradientUnits="userSpaceOnUse">
<stop stop-color="#00AEEF"/>
<stop offset="1" stop-color="#3A4EA2"/>
</linearGradient>
<linearGradient id="paint4_linear_131_554" x1="52.8323" y1="20.455" x2="55.9694" y2="20.455" gradientUnits="userSpaceOnUse">
<stop stop-color="#00AEEF"/>
<stop offset="1" stop-color="#3A4EA2"/>
</linearGradient>
<linearGradient id="paint5_linear_131_554" x1="81.7843" y1="32.1735" x2="18.1899" y2="32.1735" gradientUnits="userSpaceOnUse">
<stop stop-color="#3CC4F2"/>
<stop offset="0.15" stop-color="#3CBBEC"/>
<stop offset="0.39" stop-color="#3BA3DB"/>
<stop offset="0.7" stop-color="#3B7BC1"/>
<stop offset="1" stop-color="#3A4EA2"/>
</linearGradient>
<linearGradient id="paint6_linear_131_554" x1="-1.47011" y1="72.9426" x2="121.14" y2="72.9426" gradientUnits="userSpaceOnUse">
<stop stop-color="#3CC4F2"/>
<stop offset="0.15" stop-color="#3CBBEC"/>
<stop offset="0.39" stop-color="#3BA3DB"/>
<stop offset="0.7" stop-color="#3B7BC1"/>
<stop offset="1" stop-color="#3A4EA2"/>
</linearGradient>
<linearGradient id="paint7_linear_131_554" x1="-0.000118223" y1="73.0762" x2="99.9741" y2="73.0762" gradientUnits="userSpaceOnUse">
<stop stop-color="#3CC4F2"/>
<stop offset="0.15" stop-color="#3CBBEC"/>
<stop offset="0.39" stop-color="#3BA3DB"/>
<stop offset="0.7" stop-color="#3B7BC1"/>
<stop offset="1" stop-color="#3A4EA2"/>
</linearGradient>
<linearGradient id="paint8_linear_131_554" x1="-3.03057e-05" y1="72.9425" x2="99.9742" y2="72.9425" gradientUnits="userSpaceOnUse">
<stop stop-color="#3CC4F2"/>
<stop offset="0.15" stop-color="#3CBBEC"/>
<stop offset="0.39" stop-color="#3BA3DB"/>
<stop offset="0.7" stop-color="#3B7BC1"/>
<stop offset="1" stop-color="#3A4EA2"/>
</linearGradient>
<linearGradient id="paint9_linear_131_554" x1="-3.83352" y1="72.9426" x2="102.38" y2="72.9426" gradientUnits="userSpaceOnUse">
<stop stop-color="#3CC4F2"/>
<stop offset="0.15" stop-color="#3CBBEC"/>
<stop offset="0.39" stop-color="#3BA3DB"/>
<stop offset="0.7" stop-color="#3B7BC1"/>
<stop offset="1" stop-color="#3A4EA2"/>
</linearGradient>
<linearGradient id="paint10_linear_131_554" x1="-23.8243" y1="72.9425" x2="107.1" y2="72.9425" gradientUnits="userSpaceOnUse">
<stop stop-color="#3CC4F2"/>
<stop offset="0.15" stop-color="#3CBBEC"/>
<stop offset="0.39" stop-color="#3BA3DB"/>
<stop offset="0.7" stop-color="#3B7BC1"/>
<stop offset="1" stop-color="#3A4EA2"/>
</linearGradient>
<linearGradient id="paint11_linear_131_554" x1="1.38167e-05" y1="72.9426" x2="99.9742" y2="72.9426" gradientUnits="userSpaceOnUse">
<stop stop-color="#3CC4F2"/>
<stop offset="0.15" stop-color="#3CBBEC"/>
<stop offset="0.39" stop-color="#3BA3DB"/>
<stop offset="0.7" stop-color="#3B7BC1"/>
<stop offset="1" stop-color="#3A4EA2"/>
</linearGradient>
</defs>
</svg>
