<svg width="73" height="72" viewBox="0 0 73 72" fill="none" xmlns="http://www.w3.org/2000/svg">
<g clip-path="url(#clip0_69_812)">
<path d="M19.2195 38.4C17.8595 38.4 16.6195 38.42 15.3795 38.38C15.1595 38.38 14.8795 38.18 14.7395 38C12.7195 35.34 10.7195 32.66 8.71953 29.96C8.55953 29.76 8.45953 29.48 8.43953 29.22C8.41953 25.92 8.41953 22.62 8.41953 19.2C9.61953 19.2 10.8195 19.18 11.9995 19.22C12.1795 19.22 12.3595 19.56 12.4995 19.76C13.3195 21.06 14.4995 21.7 16.0395 21.56C17.4995 21.42 18.6995 20.38 19.0995 18.94C19.4995 17.44 19.0795 16.16 17.8795 15.18C16.1595 13.76 13.5795 14.28 12.4995 16.28C12.2795 16.68 12.0595 16.8 11.6395 16.8C10.2595 16.78 8.89953 16.78 7.51953 16.8C6.47953 16.8 6.03953 17.22 6.03953 18.24C6.03953 22.08 6.01953 25.94 6.05953 29.78C6.05953 30.18 6.25953 30.66 6.51953 31C8.11953 33.2 9.77952 35.36 11.3995 37.54C11.5795 37.78 11.7395 38.02 11.9795 38.34C10.3595 38.34 8.83952 38.34 7.27952 38.34C7.07952 36.6 6.23953 35.28 4.43953 34.94C3.31953 34.72 2.13952 34.78 1.01952 34.88C0.679525 34.92 0.339522 35.48 0.0795224 35.88C-0.0404776 36.06 0.039526 36.36 0.039526 36.62C0.039526 46.62 0.039526 56.62 0.039526 66.62C0.039526 68.1 0.359526 68.42 1.83953 68.42C2.37953 68.42 2.93952 68.42 3.47952 68.42C5.47952 68.4 6.87953 67.2 7.21953 65.22C7.23953 65.1 7.25952 64.98 7.27952 64.84C13.6595 64.84 19.9995 64.84 26.3995 64.84C26.4995 66 26.9595 66.98 27.8995 67.7C28.8595 68.44 29.9795 68.44 31.1795 68.4C31.2195 68.58 31.2395 68.74 31.2595 68.9C31.6195 70.82 33.0195 72 34.9995 72C37.8195 72 40.6395 72 43.4795 72C51.6595 72 59.8195 72 67.9995 72C70.5795 72 72.0195 70.56 72.0195 67.96C72.0195 57.14 72.0195 46.32 72.0195 35.48C72.0195 32.82 71.0595 31.64 68.4795 31.14C68.0395 27.6 67.4195 26.78 64.8595 26.36C64.8595 20 64.8595 13.64 64.8595 7.28002C67.4595 6.76002 68.4195 5.56002 68.4195 2.92002C68.4195 2.38002 68.4395 1.82002 68.4195 1.28002C68.3795 0.48002 67.9395 0.0600195 67.1395 0.0200195C66.9595 0.0200195 66.7995 0.0200195 66.6195 0.0200195C56.6195 0.0200195 46.6195 0.0200195 36.6195 0.0200195C35.1395 0.0200195 34.8195 0.340019 34.8195 1.82002C34.8195 2.26002 34.8195 2.72002 34.8195 3.16002C34.8195 5.56002 35.9795 6.88002 38.3795 7.24002C38.3795 8.00002 38.3795 8.76002 38.3795 9.60002C38.1195 9.60002 37.8395 9.60002 37.5795 9.60002C34.4595 9.60002 31.3395 9.60002 28.1995 9.60002C26.7595 9.60002 26.4195 9.92002 26.4195 11.34C26.4195 12.22 26.3995 13.1 26.4395 13.96C26.4595 14.42 26.2995 14.64 25.8995 14.88C24.2795 15.76 23.6195 17.62 24.2795 19.32C24.9195 20.94 26.6595 21.9 28.3395 21.54C30.1195 21.16 31.3595 19.58 31.2195 17.78C31.1195 16.46 30.4795 15.46 29.2995 14.84C28.9395 14.64 28.7995 14.44 28.8195 14.04C28.8595 13.4 28.8195 12.74 28.8195 12.04C32.0195 12.04 35.1795 12.04 38.3795 12.04C38.3795 16.8 38.3795 21.56 38.3795 26.32C35.7395 26.84 35.1395 27.62 34.7795 31.1C32.4195 31.62 31.5195 32.54 31.2395 34.48C30.0795 34.82 28.9395 35 27.9595 35.5C26.8995 36.04 26.5195 37.16 26.4195 38.34C24.8395 38.34 23.2995 38.34 21.6995 38.34C21.6995 35.16 21.6995 32 21.6995 28.76C22.4595 28.76 23.1995 28.72 23.9395 28.78C24.1595 28.8 24.3795 29.1 24.5195 29.32C25.3395 30.62 26.5195 31.3 28.0395 31.12C29.5395 30.96 30.5795 30.1 31.0595 28.68C31.6595 26.96 30.7995 25.04 29.1595 24.28C27.4795 23.5 25.4395 24.14 24.5595 25.76C24.2995 26.24 24.0195 26.38 23.5195 26.36C22.5995 26.32 21.6795 26.34 20.7395 26.36C19.6595 26.36 19.2395 26.78 19.2395 27.86C19.2395 31.06 19.2395 34.26 19.2395 37.46C19.2195 37.76 19.2195 38.04 19.2195 38.4ZM69.6195 51.52C69.6195 57 69.6195 62.46 69.6195 67.94C69.6195 69.22 69.2395 69.58 67.9795 69.6C57.0795 69.6 46.1795 69.6 35.2795 69.6C33.9995 69.6 33.6395 69.22 33.6195 67.94C33.6195 57.04 33.6195 46.14 33.6195 35.24C33.6195 33.96 33.9995 33.6 35.2795 33.6C46.1795 33.6 57.0795 33.6 67.9795 33.6C69.2595 33.6 69.6195 33.98 69.6195 35.24C69.6195 40.68 69.6195 46.1 69.6195 51.52ZM26.3595 40.84C26.3595 48.06 26.3595 55.22 26.3595 62.34C19.9595 62.34 13.5995 62.34 7.25953 62.34C7.25953 55.14 7.25953 48 7.25953 40.84C13.6395 40.84 19.9795 40.84 26.3595 40.84ZM62.3795 26.34C55.1595 26.34 47.9995 26.34 40.8795 26.34C40.8795 19.94 40.8795 13.58 40.8795 7.24002C48.0795 7.24002 55.2195 7.24002 62.3795 7.24002C62.3795 13.62 62.3795 19.96 62.3795 26.34ZM37.2195 2.46002C46.8595 2.46002 56.4195 2.46002 65.9595 2.46002C66.1595 4.48002 65.8595 4.80002 63.8995 4.80002C55.6395 4.80002 47.3595 4.80002 39.0995 4.80002C38.8795 4.80002 38.6395 4.82002 38.4195 4.80002C37.6995 4.74002 37.2595 4.32002 37.2195 3.62002C37.1995 3.24002 37.2195 2.88002 37.2195 2.46002ZM37.2995 31.16C37.0395 29.56 37.2795 28.76 39.2195 28.78C47.5395 28.84 55.8595 28.8 64.1795 28.8C64.3995 28.8 64.6395 28.78 64.8595 28.8C65.5595 28.86 65.9595 29.24 66.0195 29.94C66.0595 30.32 66.0195 30.72 66.0195 31.16C56.3995 31.16 46.8395 31.16 37.2995 31.16ZM31.1995 65.96C29.1395 66.14 28.8195 65.86 28.8195 63.9C28.8195 55.6 28.8195 47.32 28.8195 39.02C28.8195 38.78 28.7995 38.52 28.8395 38.28C28.9395 37.7 29.2795 37.32 29.8595 37.24C30.2995 37.18 30.7395 37.22 31.1995 37.22C31.1995 46.84 31.1995 56.38 31.1995 65.96ZM2.43953 37.24C4.51953 37.08 4.81953 37.34 4.81953 39.32C4.81953 47.62 4.81953 55.9 4.81953 64.2C4.81953 64.44 4.83952 64.7 4.79952 64.94C4.69952 65.52 4.35952 65.9 3.77952 65.98C3.33952 66.04 2.89953 66 2.45953 66C2.43953 56.36 2.43953 46.84 2.43953 37.24ZM26.4195 18C26.4195 17.36 26.9395 16.82 27.5795 16.8C28.2195 16.78 28.7795 17.3 28.7995 17.96C28.8195 18.64 28.2595 19.2 27.5995 19.2C26.9595 19.18 26.4395 18.66 26.4195 18ZM15.6195 16.8C16.2595 16.8 16.7995 17.34 16.7995 17.98C16.7995 18.62 16.2795 19.18 15.6395 19.18C14.9595 19.2 14.3995 18.62 14.4195 17.96C14.4395 17.34 14.9795 16.8 15.6195 16.8ZM27.5795 26.4C28.2195 26.38 28.7795 26.9 28.7995 27.54C28.8195 28.18 28.3195 28.74 27.6795 28.78C27.0195 28.82 26.4195 28.28 26.4195 27.6C26.4195 26.98 26.9395 26.42 27.5795 26.4Z" fill="#3C65F3"/>
<path d="M54.6997 66.0001C60.5397 66.0001 65.0197 61.5601 64.7597 56.2801C64.6797 54.6601 64.0997 53.0001 63.4997 51.4601C61.6397 46.7001 59.0397 42.3201 56.3597 37.9801C55.7597 37.0001 54.6997 36.9601 54.1197 37.9001C51.1797 42.6801 48.3997 47.5601 46.3797 52.8201C44.1597 58.6001 47.4397 63.3001 51.0197 65.0201C52.3397 65.6601 53.7397 66.0001 54.6997 66.0001ZM55.2597 40.8401C55.3197 40.9401 55.3997 41.0201 55.4597 41.1201C56.5597 43.0601 57.7397 44.9401 58.6997 46.9401C59.9197 49.4801 61.1997 52.0201 62.0597 54.6801C63.4397 58.9801 60.0797 63.4001 55.5597 63.6001C50.6397 63.8201 46.6397 58.9201 48.5197 53.9401C50.2397 49.3601 52.6197 45.1201 55.0997 40.9201C55.1197 40.9001 55.1797 40.8801 55.2597 40.8401Z" fill="#3C65F3"/>
<path d="M43.2396 46.8C46.6796 46.78 49.0196 43.2 47.5796 40.24C46.6796 38.38 45.4596 36.74 44.0996 35.22C43.5796 34.66 42.8396 34.66 42.3196 35.24C40.9596 36.76 39.7396 38.4 38.8396 40.26C37.4596 43.14 39.7196 46.8 43.2396 46.8ZM43.0596 37.92C43.1596 37.92 43.2596 37.9 43.3796 37.9C44.0596 39 44.7796 40.06 45.3796 41.2C45.8996 42.18 45.5396 43.26 44.6796 43.92C43.7996 44.58 42.6196 44.58 41.7596 43.9C40.8796 43.22 40.5796 42.16 41.0996 41.18C41.6796 40.04 42.3996 39 43.0596 37.92Z" fill="#3C65F3"/>
<path d="M67.1992 38.3601C67.1992 37.5801 67.1992 36.8601 67.1992 36.0601C66.4392 36.0601 65.6792 36.0601 64.8592 36.0601C64.8592 36.7801 64.8592 37.5401 64.8592 38.3601C65.6192 38.3601 66.3792 38.3601 67.1992 38.3601Z" fill="#3C65F3"/>
<path d="M36.0599 67.18C36.8399 67.18 37.5799 67.18 38.3799 67.18C38.3799 66.42 38.3799 65.66 38.3799 64.86C37.6199 64.86 36.8599 64.86 36.0599 64.86C36.0599 65.6 36.0599 66.34 36.0599 67.18Z" fill="#3C65F3"/>
<path d="M17.6399 52C17.0999 52.54 16.5799 53.08 15.9999 53.66C16.4399 54.12 16.8999 54.6 17.4399 55.18C15.9799 55.18 14.6399 55.18 13.2599 55.18C13.2599 56 13.2599 56.76 13.2599 57.56C14.5999 57.56 15.9399 57.56 17.4999 57.56C16.9199 58.16 16.4799 58.62 15.9999 59.12C16.5799 59.66 17.1399 60.18 17.6799 60.68C18.8599 59.54 20.0999 58.36 21.2999 57.14C21.7399 56.7 21.7399 56.1 21.2999 55.64C20.1399 54.42 18.8799 53.22 17.6399 52Z" fill="#3C65F3"/>
<path d="M20.3594 45.6001C18.9794 45.6001 17.6594 45.6001 16.1794 45.6001C16.7194 45.0401 17.1594 44.5601 17.6194 44.0801C17.0594 43.5201 16.5194 42.9801 15.9594 42.4401C14.7394 43.6401 13.5194 44.8201 12.3394 46.0401C11.8394 46.5401 11.8794 47.1601 12.3794 47.6601C13.5394 48.8601 14.7394 50.0201 15.9394 51.2001C16.4594 50.6401 16.9594 50.0801 17.5594 49.4201C17.1794 49.1201 16.6594 48.7201 16.1394 48.3201C16.1794 48.2401 16.2394 48.1601 16.2794 48.0801C17.6194 48.0801 18.9794 48.0801 20.3594 48.0801C20.3594 47.1801 20.3594 46.4001 20.3594 45.6001Z" fill="#3C65F3"/>
<path d="M52.0593 16C52.5793 16.5 53.0993 17.02 53.6793 17.6C54.1593 17.16 54.6193 16.7 55.1993 16.16C55.1993 17.64 55.1993 18.96 55.1993 20.36C56.0193 20.36 56.7793 20.36 57.5793 20.36C57.5793 19.02 57.5793 17.68 57.5793 16.12C58.1793 16.7 58.6393 17.14 59.1393 17.62C59.6793 17.04 60.1993 16.48 60.7393 15.92C59.5793 14.74 58.3793 13.5 57.1593 12.3C56.6993 11.86 56.0993 11.88 55.6593 12.32C54.4393 13.5 53.2793 14.76 52.0593 16Z" fill="#3C65F3"/>
<path d="M45.3793 17.44C44.9593 16.96 44.5393 16.46 44.0793 15.94C43.5193 16.54 42.9993 17.08 42.3793 17.72C42.9593 18.28 43.5593 18.86 44.1593 19.44C44.7393 20.02 45.3193 20.62 45.9193 21.18C46.5193 21.74 47.0993 21.76 47.6593 21.24C48.8593 20.08 50.0193 18.88 51.2393 17.68C50.6593 17.12 50.0993 16.6 49.4393 15.96C49.0593 16.44 48.6793 16.94 48.2793 17.46C48.1993 17.42 48.1193 17.38 48.0393 17.32C48.0393 15.98 48.0393 14.62 48.0393 13.24C47.1993 13.24 46.4593 13.24 45.6393 13.24C45.6393 14.58 45.6393 15.94 45.6393 17.3C45.5593 17.34 45.4793 17.4 45.3793 17.44Z" fill="#3C65F3"/>
</g>
<defs>
<clipPath id="clip0_69_812">
<rect width="72.02" height="72" fill="white" transform="matrix(-1 0 0 1 72.0195 0)"/>
</clipPath>
</defs>
</svg>
